<svg xmlns="http://www.w3.org/2000/svg" xmlns:xlink="http://www.w3.org/1999/xlink" width="128" zoomAndPan="magnify" viewBox="0 0 96 95.999999" height="128" preserveAspectRatio="xMidYMid meet" version="1.0"><defs><clipPath id="c861b505a1"><path d="M 74.460938 66.726562 L 96 66.726562 L 96 92.160156 L 74.460938 92.160156 Z M 74.460938 66.726562 " clip-rule="nonzero"/></clipPath><clipPath id="ae1edc2775"><path d="M 37 3.660156 L 81 3.660156 L 81 81 L 37 81 Z M 37 3.660156 " clip-rule="nonzero"/></clipPath><clipPath id="e8f88b2d45"><path d="M 0 3.667969 L 58.859375 3.667969 L 58.859375 92.160156 L 0 92.160156 Z M 0 3.667969 " clip-rule="nonzero"/></clipPath></defs><rect x="-9.6" width="115.2" fill="#ffffff" y="-9.6" height="115.199999" fill-opacity="1"/><rect x="-9.6" width="115.2" fill="#ffffff" y="-9.6" height="115.199999" fill-opacity="1"/><g clip-path="url(#c861b505a1)"><path fill="#054aca" d="M 85.25 66.734375 L 74.5 92.328125 L 96.003906 92.328125 Z M 85.25 66.734375 " fill-opacity="1" fill-rule="nonzero"/></g><path fill="#054aca" d="M 36.523438 80.449219 L 69.507812 80.449219 L 61.125 60.5 L 44.976562 60.5 L 36.523438 80.449219 " fill-opacity="1" fill-rule="nonzero"/><g clip-path="url(#ae1edc2775)"><path fill="#1800ad" d="M 80.261719 54.855469 L 58.753906 3.667969 L 37.25 3.667969 L 69.507812 80.449219 L 80.261719 54.855469 " fill-opacity="1" fill-rule="nonzero"/></g><g clip-path="url(#e8f88b2d45)"><path fill="#054aca" d="M 37.25 3.667969 L 0 92.328125 L 21.503906 92.328125 L 58.753906 3.667969 L 37.25 3.667969 " fill-opacity="1" fill-rule="nonzero"/></g></svg>