<svg xmlns="http://www.w3.org/2000/svg" xmlns:xlink="http://www.w3.org/1999/xlink" width="1920" zoomAndPan="magnify" viewBox="0 0 1440 449.999984" height="600" preserveAspectRatio="xMidYMid meet" version="1.0"><defs><g/><clipPath id="d175b99356"><path d="M 1011.113281 229.195312 L 1061.425781 229.195312 L 1061.425781 288.898438 L 1011.113281 288.898438 Z M 1011.113281 229.195312 " clip-rule="nonzero"/></clipPath><clipPath id="ba44bb7831"><path d="M 924 81.898438 L 1025 81.898438 L 1025 262 L 924 262 Z M 924 81.898438 " clip-rule="nonzero"/></clipPath><clipPath id="ebdefb7c49"><path d="M 837.203125 81.925781 L 974.679688 81.925781 L 974.679688 288.898438 L 837.203125 288.898438 Z M 837.203125 81.925781 " clip-rule="nonzero"/></clipPath><clipPath id="772af196ec"><rect x="0" width="340" y="0" height="232"/></clipPath><clipPath id="d40e379991"><rect x="0" width="1049" y="0" height="163"/></clipPath><clipPath id="1e58a9982e"><rect x="0" width="598" y="0" height="174"/></clipPath></defs><rect x="-144" width="1728" fill="#ffffff" y="-44.999998" height="539.99998" fill-opacity="1"/><rect x="-144" width="1728" fill="#ffffff" y="-44.999998" height="539.99998" fill-opacity="1"/><g clip-path="url(#d175b99356)"><path fill="#054aca" d="M 1036.316406 229.21875 L 1011.199219 288.992188 L 1061.425781 288.992188 Z M 1036.316406 229.21875 " fill-opacity="1" fill-rule="nonzero"/></g><path fill="#054aca" d="M 922.507812 261.246094 L 999.542969 261.246094 L 979.96875 214.65625 L 942.253906 214.65625 L 922.507812 261.246094 " fill-opacity="1" fill-rule="nonzero"/><g clip-path="url(#ba44bb7831)"><path fill="#1800ad" d="M 1024.65625 201.472656 L 974.429688 81.925781 L 924.203125 81.925781 L 999.542969 261.246094 L 1024.65625 201.472656 " fill-opacity="1" fill-rule="nonzero"/></g><g clip-path="url(#ebdefb7c49)"><path fill="#054aca" d="M 924.203125 81.925781 L 837.203125 288.992188 L 887.429688 288.992188 L 974.429688 81.925781 L 924.203125 81.925781 " fill-opacity="1" fill-rule="nonzero"/></g><g transform="matrix(1, 0, 0, 1, 180, 0)"><g clip-path="url(#772af196ec)"><g fill="#053ec5" fill-opacity="1"><g transform="translate(0.399621, 173.260016)"><g><path d="M 113.28125 -117.796875 L 74.328125 -117.796875 L 49.484375 0 L 34.4375 0 L 59.28125 -117.796875 L 20.703125 -117.796875 L 23.515625 -131.71875 L 116.109375 -131.71875 Z M 113.28125 -117.796875 "/></g></g></g><g fill="#053ec5" fill-opacity="1"><g transform="translate(102.718706, 173.260016)"><g><path d="M 95.03125 -60.40625 L 35.1875 -60.40625 L 22.578125 0 L 7.53125 0 L 35.375 -131.71875 L 50.4375 -131.71875 L 38.390625 -74.328125 L 98.03125 -74.328125 L 110.078125 -131.71875 L 125.140625 -131.71875 L 97.28125 0 L 82.234375 0 Z M 95.03125 -60.40625 "/></g></g></g><g fill="#053ec5" fill-opacity="1"><g transform="translate(225.914931, 173.260016)"><g><path d="M 35.5625 -131.71875 L 103.5 -131.71875 L 100.671875 -117.796875 L 47.421875 -117.796875 L 38.203125 -74.703125 L 86.9375 -74.703125 L 84.109375 -60.78125 L 35.375 -60.78125 L 25.40625 -13.921875 L 79.59375 -13.921875 L 76.59375 0 L 7.53125 0 Z M 35.5625 -131.71875 "/></g></g></g></g></g><g transform="matrix(1, 0, 0, 1, 214, 162)"><g clip-path="url(#d40e379991)"><g fill="#121213" fill-opacity="1"><g transform="translate(2.01077, 128.2296)"><g><path d="M 79.171875 -47.53125 C 84.378906 -45.707031 88.457031 -42.863281 91.40625 -39 C 94.363281 -35.132812 95.84375 -30.46875 95.84375 -25 C 95.84375 -17.007812 92.628906 -10.84375 86.203125 -6.5 C 79.773438 -2.164062 70.488281 0 58.34375 0 L 9.109375 0 L 9.109375 -91.15625 L 55.734375 -91.15625 C 67.367188 -91.15625 76.222656 -89.003906 82.296875 -84.703125 C 88.367188 -80.410156 91.40625 -74.617188 91.40625 -67.328125 C 91.40625 -62.984375 90.34375 -59.097656 88.21875 -55.671875 C 86.09375 -52.242188 83.078125 -49.53125 79.171875 -47.53125 Z M 34.640625 -72.53125 L 34.640625 -54.953125 L 52.34375 -54.953125 C 61.03125 -54.953125 65.375 -57.90625 65.375 -63.8125 C 65.375 -69.625 61.03125 -72.53125 52.34375 -72.53125 Z M 56.25 -18.625 C 65.28125 -18.625 69.796875 -21.703125 69.796875 -27.859375 C 69.796875 -34.023438 65.28125 -37.109375 56.25 -37.109375 L 34.640625 -37.109375 L 34.640625 -18.625 Z M 56.25 -18.625 "/></g></g></g><g fill="#121213" fill-opacity="1"><g transform="translate(102.153103, 128.2296)"><g><path d="M 82.296875 -19.921875 L 82.296875 0 L 9.109375 0 L 9.109375 -91.15625 L 80.609375 -91.15625 L 80.609375 -71.234375 L 34.640625 -71.234375 L 34.640625 -55.859375 L 75.140625 -55.859375 L 75.140625 -36.59375 L 34.640625 -36.59375 L 34.640625 -19.921875 Z M 82.296875 -19.921875 "/></g></g></g><g fill="#121213" fill-opacity="1"><g transform="translate(189.663697, 128.2296)"><g><path d="M 95.84375 -91.15625 L 95.84375 0 L 74.609375 0 L 34.375 -48.578125 L 34.375 0 L 9.109375 0 L 9.109375 -91.15625 L 30.34375 -91.15625 L 70.578125 -42.578125 L 70.578125 -91.15625 Z M 95.84375 -91.15625 "/></g></g></g><g fill="#121213" fill-opacity="1"><g transform="translate(294.624326, 128.2296)"><g><path d="M 54.5625 1.828125 C 45.007812 1.828125 36.4375 -0.1875 28.84375 -4.21875 C 21.25 -8.257812 15.28125 -13.882812 10.9375 -21.09375 C 6.59375 -28.300781 4.421875 -36.460938 4.421875 -45.578125 C 4.421875 -54.691406 6.59375 -62.847656 10.9375 -70.046875 C 15.28125 -77.253906 21.25 -82.875 28.84375 -86.90625 C 36.4375 -90.945312 45.007812 -92.96875 54.5625 -92.96875 C 62.894531 -92.96875 70.398438 -91.492188 77.078125 -88.546875 C 83.765625 -85.597656 89.320312 -81.34375 93.75 -75.78125 L 77.34375 -60.9375 C 71.445312 -68.0625 64.285156 -71.625 55.859375 -71.625 C 50.910156 -71.625 46.503906 -70.535156 42.640625 -68.359375 C 38.785156 -66.191406 35.789062 -63.132812 33.65625 -59.1875 C 31.53125 -55.238281 30.46875 -50.703125 30.46875 -45.578125 C 30.46875 -40.453125 31.53125 -35.914062 33.65625 -31.96875 C 35.789062 -28.019531 38.785156 -24.957031 42.640625 -22.78125 C 46.503906 -20.613281 50.910156 -19.53125 55.859375 -19.53125 C 64.285156 -19.53125 71.445312 -23.085938 77.34375 -30.203125 L 93.75 -15.359375 C 89.320312 -9.804688 83.765625 -5.550781 77.078125 -2.59375 C 70.398438 0.351562 62.894531 1.828125 54.5625 1.828125 Z M 54.5625 1.828125 "/></g></g></g><g fill="#121213" fill-opacity="1"><g transform="translate(390.729711, 128.2296)"><g><path d="M 95.84375 -91.15625 L 95.84375 0 L 70.0625 0 L 70.0625 -35.546875 L 34.90625 -35.546875 L 34.90625 0 L 9.109375 0 L 9.109375 -91.15625 L 34.90625 -91.15625 L 34.90625 -56.90625 L 70.0625 -56.90625 L 70.0625 -91.15625 Z M 95.84375 -91.15625 "/></g></g></g><g fill="#121213" fill-opacity="1"><g transform="translate(495.69034, 128.2296)"><g><path d="M 91.40625 0 L 91.15625 -48.3125 L 67.71875 -8.984375 L 56.25 -8.984375 L 32.953125 -47.015625 L 32.953125 0 L 9.109375 0 L 9.109375 -91.15625 L 30.34375 -91.15625 L 62.375 -38.546875 L 93.625 -91.15625 L 114.859375 -91.15625 L 115.109375 0 Z M 91.40625 0 "/></g></g></g><g fill="#121213" fill-opacity="1"><g transform="translate(619.955858, 128.2296)"><g/></g></g><g fill="#121213" fill-opacity="1"><g transform="translate(657.851074, 128.2296)"><g/></g></g><g fill="#121213" fill-opacity="1"><g transform="translate(695.74629, 128.2296)"><g/></g></g><g fill="#121213" fill-opacity="1"><g transform="translate(733.641506, 128.2296)"><g/></g></g><g fill="#121213" fill-opacity="1"><g transform="translate(771.536722, 128.2296)"><g/></g></g><g fill="#121213" fill-opacity="1"><g transform="translate(809.431938, 128.2296)"><g/></g></g><g fill="#121213" fill-opacity="1"><g transform="translate(847.35055, 128.2296)"><g><path d="M 48.96875 -24.21875 L 34.90625 -24.21875 L 34.90625 0 L 9.109375 0 L 9.109375 -91.15625 L 50.78125 -91.15625 C 59.03125 -91.15625 66.191406 -89.785156 72.265625 -87.046875 C 78.347656 -84.316406 83.035156 -80.410156 86.328125 -75.328125 C 89.628906 -70.253906 91.28125 -64.285156 91.28125 -57.421875 C 91.28125 -50.828125 89.738281 -45.078125 86.65625 -40.171875 C 83.570312 -35.265625 79.164062 -31.421875 73.4375 -28.640625 L 93.109375 0 L 65.5 0 Z M 65.234375 -57.421875 C 65.234375 -61.679688 63.890625 -64.984375 61.203125 -67.328125 C 58.515625 -69.671875 54.519531 -70.84375 49.21875 -70.84375 L 34.90625 -70.84375 L 34.90625 -44.140625 L 49.21875 -44.140625 C 54.519531 -44.140625 58.515625 -45.289062 61.203125 -47.59375 C 63.890625 -49.894531 65.234375 -53.171875 65.234375 -57.421875 Z M 65.234375 -57.421875 "/></g></g></g><g fill="#121213" fill-opacity="1"><g transform="translate(943.716387, 128.2296)"><g><path d="M 44.28125 -33.078125 L 34.640625 -22.78125 L 34.640625 0 L 9.109375 0 L 9.109375 -91.15625 L 34.640625 -91.15625 L 34.640625 -53.265625 L 69.921875 -91.15625 L 98.3125 -91.15625 L 61.078125 -50.78125 L 100.265625 0 L 70.3125 0 Z M 44.28125 -33.078125 "/></g></g></g></g></g><g transform="matrix(1, 0, 0, 1, 679, 270)"><g clip-path="url(#1e58a9982e)"><g fill="#0640c6" fill-opacity="1"><g transform="translate(0.655568, 138.889068)"><g><path d="M 108.234375 -107.3125 L 105.296875 -94.765625 L 72.9375 -94.765625 L 50.171875 0 L 35.15625 0 L 57.90625 -94.765625 L 25.546875 -94.765625 L 28.484375 -107.3125 Z M 108.234375 -107.3125 "/></g></g></g><g fill="#0640c6" fill-opacity="1"><g transform="translate(88.727533, 138.889068)"><g><path d="M 65.5 -108.390625 C 76.957031 -108.390625 86.039062 -106.066406 92.75 -101.421875 C 99.457031 -96.773438 102.8125 -89.960938 102.8125 -80.984375 C 102.8125 -71.898438 100.15625 -64.285156 94.84375 -58.140625 C 89.53125 -52.003906 82.070312 -47.59375 72.46875 -44.90625 C 73.707031 -42.738281 75.148438 -39.976562 76.796875 -36.625 C 78.453125 -33.269531 80.15625 -29.550781 81.90625 -25.46875 C 83.664062 -21.394531 85.367188 -17.160156 87.015625 -12.765625 C 88.671875 -8.378906 90.117188 -4.125 91.359375 0 L 76.03125 0 C 74.582031 -3.925781 73.082031 -7.898438 71.53125 -11.921875 C 69.988281 -15.953125 68.414062 -19.820312 66.8125 -23.53125 C 65.21875 -27.25 63.617188 -30.734375 62.015625 -33.984375 C 60.410156 -37.234375 58.941406 -40.097656 57.609375 -42.578125 C 56.265625 -42.472656 54.921875 -42.394531 53.578125 -42.34375 C 52.234375 -42.289062 50.890625 -42.265625 49.546875 -42.265625 L 37.625 -42.265625 L 27.5625 0 L 12.546875 0 L 37.9375 -105.90625 C 42.269531 -106.945312 46.863281 -107.617188 51.71875 -107.921875 C 56.570312 -108.234375 61.164062 -108.390625 65.5 -108.390625 Z M 63.640625 -95.6875 C 56.304688 -95.6875 51.867188 -95.484375 50.328125 -95.078125 L 40.5625 -54.5 L 49.703125 -54.5 C 53.929688 -54.5 58.265625 -54.804688 62.703125 -55.421875 C 67.148438 -56.046875 71.203125 -57.257812 74.859375 -59.0625 C 78.523438 -60.875 81.519531 -63.40625 83.84375 -66.65625 C 86.164062 -69.90625 87.328125 -74.21875 87.328125 -79.59375 C 87.328125 -85.375 85.132812 -89.5 80.75 -91.96875 C 76.363281 -94.445312 70.660156 -95.6875 63.640625 -95.6875 Z M 63.640625 -95.6875 "/></g></g></g><g fill="#0640c6" fill-opacity="1"><g transform="translate(185.157743, 138.889068)"><g><path d="M 33.140625 -27.5625 L 17.96875 0 L 1.546875 0 C 13.109375 -20.851562 24.382812 -40.050781 35.375 -57.59375 C 46.375 -75.144531 57.238281 -91.71875 67.96875 -107.3125 L 82.6875 -107.3125 C 84.238281 -99.5625 85.65625 -91.738281 86.9375 -83.84375 C 88.226562 -75.945312 89.492188 -67.660156 90.734375 -58.984375 C 91.972656 -50.316406 93.160156 -41.128906 94.296875 -31.421875 C 95.429688 -21.722656 96.617188 -11.25 97.859375 0 L 82.6875 0 C 82.164062 -4.644531 81.695312 -9.316406 81.28125 -14.015625 C 80.875 -18.710938 80.414062 -23.226562 79.90625 -27.5625 Z M 78.5 -39.640625 C 77.675781 -48.003906 76.722656 -56.3125 75.640625 -64.5625 C 74.554688 -72.820312 73.289062 -81.34375 71.84375 -90.125 C 68.226562 -84.851562 63.738281 -78.0625 58.375 -69.75 C 53.007812 -61.445312 46.921875 -51.410156 40.109375 -39.640625 Z M 78.5 -39.640625 "/></g></g></g><g fill="#0640c6" fill-opacity="1"><g transform="translate(285.767029, 138.889068)"><g><path d="M 64.265625 -95.6875 C 56.515625 -95.6875 51.867188 -95.484375 50.328125 -95.078125 L 30.5 -12.390625 C 31.332031 -12.179688 32.726562 -12 34.6875 -11.84375 C 36.644531 -11.6875 39.84375 -11.609375 44.28125 -11.609375 C 52.4375 -11.609375 59.789062 -12.972656 66.34375 -15.703125 C 72.90625 -18.441406 78.457031 -22.265625 83 -27.171875 C 87.539062 -32.078125 91.046875 -37.910156 93.515625 -44.671875 C 95.992188 -51.429688 97.234375 -58.835938 97.234375 -66.890625 C 97.234375 -75.972656 94.601562 -83.039062 89.34375 -88.09375 C 84.082031 -93.15625 75.722656 -95.6875 64.265625 -95.6875 Z M 65.5 -108.390625 C 81.394531 -108.390625 93.265625 -104.644531 101.109375 -97.15625 C 108.953125 -89.675781 112.875 -79.585938 112.875 -66.890625 C 112.875 -58.015625 111.476562 -49.472656 108.6875 -41.265625 C 105.90625 -33.054688 101.570312 -25.800781 95.6875 -19.5 C 89.8125 -13.207031 82.300781 -8.203125 73.15625 -4.484375 C 64.019531 -0.773438 53.109375 1.078125 40.421875 1.078125 C 36.078125 1.078125 31.375 0.867188 26.3125 0.453125 C 21.257812 0.046875 16.820312 -0.671875 13 -1.703125 L 37.9375 -105.90625 C 42.269531 -106.945312 46.863281 -107.617188 51.71875 -107.921875 C 56.570312 -108.234375 61.164062 -108.390625 65.5 -108.390625 Z M 65.5 -108.390625 "/></g></g></g><g fill="#0640c6" fill-opacity="1"><g transform="translate(394.889392, 138.889068)"><g><path d="M 12.546875 0 L 38.25 -107.3125 L 101.578125 -107.3125 L 98.640625 -94.765625 L 50.171875 -94.765625 L 42.421875 -62.40625 L 85.46875 -62.40625 L 82.53125 -50.171875 L 39.640625 -50.171875 L 30.5 -12.546875 L 82.53125 -12.546875 L 79.59375 0 Z M 12.546875 0 "/></g></g></g><g fill="#0640c6" fill-opacity="1"><g transform="translate(483.270935, 138.889068)"><g><path d="M 65.5 -108.390625 C 76.957031 -108.390625 86.039062 -106.066406 92.75 -101.421875 C 99.457031 -96.773438 102.8125 -89.960938 102.8125 -80.984375 C 102.8125 -71.898438 100.15625 -64.285156 94.84375 -58.140625 C 89.53125 -52.003906 82.070312 -47.59375 72.46875 -44.90625 C 73.707031 -42.738281 75.148438 -39.976562 76.796875 -36.625 C 78.453125 -33.269531 80.15625 -29.550781 81.90625 -25.46875 C 83.664062 -21.394531 85.367188 -17.160156 87.015625 -12.765625 C 88.671875 -8.378906 90.117188 -4.125 91.359375 0 L 76.03125 0 C 74.582031 -3.925781 73.082031 -7.898438 71.53125 -11.921875 C 69.988281 -15.953125 68.414062 -19.820312 66.8125 -23.53125 C 65.21875 -27.25 63.617188 -30.734375 62.015625 -33.984375 C 60.410156 -37.234375 58.941406 -40.097656 57.609375 -42.578125 C 56.265625 -42.472656 54.921875 -42.394531 53.578125 -42.34375 C 52.234375 -42.289062 50.890625 -42.265625 49.546875 -42.265625 L 37.625 -42.265625 L 27.5625 0 L 12.546875 0 L 37.9375 -105.90625 C 42.269531 -106.945312 46.863281 -107.617188 51.71875 -107.921875 C 56.570312 -108.234375 61.164062 -108.390625 65.5 -108.390625 Z M 63.640625 -95.6875 C 56.304688 -95.6875 51.867188 -95.484375 50.328125 -95.078125 L 40.5625 -54.5 L 49.703125 -54.5 C 53.929688 -54.5 58.265625 -54.804688 62.703125 -55.421875 C 67.148438 -56.046875 71.203125 -57.257812 74.859375 -59.0625 C 78.523438 -60.875 81.519531 -63.40625 83.84375 -66.65625 C 86.164062 -69.90625 87.328125 -74.21875 87.328125 -79.59375 C 87.328125 -85.375 85.132812 -89.5 80.75 -91.96875 C 76.363281 -94.445312 70.660156 -95.6875 63.640625 -95.6875 Z M 63.640625 -95.6875 "/></g></g></g></g></g></svg>