<svg xmlns="http://www.w3.org/2000/svg" xmlns:xlink="http://www.w3.org/1999/xlink" width="512" zoomAndPan="magnify" viewBox="0 0 384 383.999986" height="512" preserveAspectRatio="xMidYMid meet" version="1.0"><defs><clipPath id="7730b47052"><path d="M 297.84375 266.90625 L 384 266.90625 L 384 369.316406 L 297.84375 369.316406 Z M 297.84375 266.90625 " clip-rule="nonzero"/></clipPath><clipPath id="d38320ad90"><path d="M 148 14.640625 L 322 14.640625 L 322 322 L 148 322 Z M 148 14.640625 " clip-rule="nonzero"/></clipPath><clipPath id="fa7fd9dc78"><path d="M 0 14.679688 L 235.445312 14.679688 L 235.445312 369.316406 L 0 369.316406 Z M 0 14.679688 " clip-rule="nonzero"/></clipPath></defs><rect x="-38.4" width="460.8" fill="#ffffff" y="-38.399999" height="460.799983" fill-opacity="1"/><rect x="-38.4" width="460.8" fill="#ffffff" y="-38.399999" height="460.799983" fill-opacity="1"/><g clip-path="url(#7730b47052)"><path fill="#054aca" d="M 341.003906 266.941406 L 297.992188 369.316406 L 384.015625 369.316406 Z M 341.003906 266.941406 " fill-opacity="1" fill-rule="nonzero"/></g><path fill="#054aca" d="M 146.089844 321.796875 L 278.03125 321.796875 L 244.503906 242 L 179.914062 242 L 146.089844 321.796875 " fill-opacity="1" fill-rule="nonzero"/><g clip-path="url(#d38320ad90)"><path fill="#1800ad" d="M 321.039062 219.425781 L 235.019531 14.679688 L 148.996094 14.679688 L 278.03125 321.796875 L 321.039062 219.425781 " fill-opacity="1" fill-rule="nonzero"/></g><g clip-path="url(#fa7fd9dc78)"><path fill="#054aca" d="M 148.996094 14.679688 L 0 369.316406 L 86.023438 369.316406 L 235.019531 14.679688 L 148.996094 14.679688 " fill-opacity="1" fill-rule="nonzero"/></g></svg>