<svg xmlns="http://www.w3.org/2000/svg" xmlns:xlink="http://www.w3.org/1999/xlink" width="64" zoomAndPan="magnify" viewBox="0 0 48 48" height="64" preserveAspectRatio="xMidYMid meet" version="1.0"><defs><clipPath id="060047bf7a"><path d="M 0.488281 0 L 47.507812 0 L 47.507812 47.019531 L 0.488281 47.019531 Z M 0.488281 0 " clip-rule="nonzero"/></clipPath><clipPath id="c14c9fea77"><path d="M 36.960938 30.886719 L 47.507812 30.886719 L 47.507812 43.347656 L 36.960938 43.347656 Z M 36.960938 30.886719 " clip-rule="nonzero"/></clipPath><clipPath id="d6064a8240"><path d="M 0.488281 0 L 29.320312 0 L 29.320312 43.347656 L 0.488281 43.347656 Z M 0.488281 0 " clip-rule="nonzero"/></clipPath></defs><g clip-path="url(#060047bf7a)"><path fill="#ffffff" d="M 0.488281 0 L 47.511719 0 L 47.511719 47.019531 L 0.488281 47.019531 Z M 0.488281 0 " fill-opacity="1" fill-rule="nonzero"/><path fill="#ffffff" d="M 0.488281 0 L 47.511719 0 L 47.511719 47.019531 L 0.488281 47.019531 Z M 0.488281 0 " fill-opacity="1" fill-rule="nonzero"/></g><g clip-path="url(#c14c9fea77)"><path fill="#054aca" d="M 42.246094 30.890625 L 36.980469 43.425781 L 47.511719 43.425781 Z M 42.246094 30.890625 " fill-opacity="1" fill-rule="nonzero"/></g><path fill="#054aca" d="M 18.378906 37.605469 L 34.535156 37.605469 L 30.429688 27.835938 L 22.519531 27.835938 L 18.378906 37.605469 " fill-opacity="1" fill-rule="nonzero"/><path fill="#1800ad" d="M 39.800781 25.070312 L 29.265625 0 L 18.734375 0 L 34.535156 37.605469 L 39.800781 25.070312 " fill-opacity="1" fill-rule="nonzero"/><g clip-path="url(#d6064a8240)"><path fill="#054aca" d="M 18.734375 0 L 0.488281 43.425781 L 11.023438 43.425781 L 29.265625 0 L 18.734375 0 " fill-opacity="1" fill-rule="nonzero"/></g></svg>