<svg xmlns="http://www.w3.org/2000/svg" xmlns:xlink="http://www.w3.org/1999/xlink" width="800" zoomAndPan="magnify" viewBox="0 0 600 599.999999" height="800" preserveAspectRatio="xMidYMid meet" version="1.0"><defs><clipPath id="ffac3eb4a6"><path d="M 465.382812 412.675781 L 600 412.675781 L 600 572.691406 L 465.382812 572.691406 Z M 465.382812 412.675781 " clip-rule="nonzero"/></clipPath><clipPath id="517267c0dc"><path d="M 232 18.507812 L 502 18.507812 L 502 499 L 232 499 Z M 232 18.507812 " clip-rule="nonzero"/></clipPath><clipPath id="9eb0dc28c6"><path d="M 0 18.574219 L 367.882812 18.574219 L 367.882812 572.691406 L 0 572.691406 Z M 0 18.574219 " clip-rule="nonzero"/></clipPath></defs><rect x="-60" width="720" fill="#ffffff" y="-60" height="719.999999" fill-opacity="1"/><rect x="-60" width="720" fill="#ffffff" y="-60" height="719.999999" fill-opacity="1"/><g clip-path="url(#ffac3eb4a6)"><path fill="#054aca" d="M 532.820312 412.734375 L 465.613281 572.691406 L 600.023438 572.691406 Z M 532.820312 412.734375 " fill-opacity="1" fill-rule="nonzero"/></g><path fill="#054aca" d="M 228.269531 498.441406 L 434.421875 498.441406 L 382.039062 373.761719 L 281.117188 373.761719 L 228.269531 498.441406 " fill-opacity="1" fill-rule="nonzero"/><g clip-path="url(#517267c0dc)"><path fill="#1800ad" d="M 501.625 338.488281 L 367.214844 18.574219 L 232.808594 18.574219 L 434.421875 498.441406 L 501.625 338.488281 " fill-opacity="1" fill-rule="nonzero"/></g><g clip-path="url(#9eb0dc28c6)"><path fill="#054aca" d="M 232.808594 18.574219 L 0 572.691406 L 134.410156 572.691406 L 367.214844 18.574219 L 232.808594 18.574219 " fill-opacity="1" fill-rule="nonzero"/></g></svg>