<svg xmlns="http://www.w3.org/2000/svg" xmlns:xlink="http://www.w3.org/1999/xlink" width="480" zoomAndPan="magnify" viewBox="0 0 360 135.000003" height="180" preserveAspectRatio="xMidYMid meet" version="1.0"><defs><g/><clipPath id="d09265f772"><path d="M 1.324219 0 L 358.675781 0 L 358.675781 134.007812 L 1.324219 134.007812 Z M 1.324219 0 " clip-rule="nonzero"/></clipPath><clipPath id="4ee2a9072c"><path d="M 226.53125 66.058594 L 239.730469 66.058594 L 239.730469 82.253906 L 226.53125 82.253906 Z M 226.53125 66.058594 " clip-rule="nonzero"/></clipPath><clipPath id="9a84518374"><path d="M 202 25.945312 L 231 25.945312 L 231 75 L 202 75 Z M 202 25.945312 " clip-rule="nonzero"/></clipPath><clipPath id="cb71eda232"><path d="M 179.171875 25.953125 L 216.609375 25.953125 L 216.609375 82.253906 L 179.171875 82.253906 Z M 179.171875 25.953125 " clip-rule="nonzero"/></clipPath><clipPath id="957de05cfa"><path d="M 0.0546875 0.191406 L 93 0.191406 L 93 67 L 0.0546875 67 Z M 0.0546875 0.191406 " clip-rule="nonzero"/></clipPath><clipPath id="b2bb48171f"><rect x="0" width="93" y="0" height="67"/></clipPath><clipPath id="71277a7231"><rect x="0" width="286" y="0" height="45"/></clipPath><clipPath id="02af7ba32b"><path d="M 136 77 L 299.039062 77 L 299.039062 124.550781 L 136 124.550781 Z M 136 77 " clip-rule="nonzero"/></clipPath><clipPath id="30e0de7232"><rect x="0" width="164" y="0" height="48"/></clipPath><clipPath id="d7acbf07ac"><rect x="0" width="300" y="0" height="125"/></clipPath></defs><g clip-path="url(#d09265f772)"><path fill="#ffffff" d="M 1.324219 0 L 358.675781 0 L 358.675781 134.007812 L 1.324219 134.007812 Z M 1.324219 0 " fill-opacity="1" fill-rule="nonzero"/><path fill="#ffffff" d="M 1.324219 0 L 358.675781 0 L 358.675781 134.007812 L 1.324219 134.007812 Z M 1.324219 0 " fill-opacity="1" fill-rule="nonzero"/></g><g transform="matrix(1, 0, 0, 1, 27, 1)"><g clip-path="url(#d7acbf07ac)"><g clip-path="url(#4ee2a9072c)"><path fill="#054aca" d="M 233.390625 66.066406 L 226.554688 82.34375 L 240.230469 82.34375 Z M 233.390625 66.066406 " fill-opacity="1" fill-rule="nonzero"/></g><path fill="#054aca" d="M 202.402344 74.785156 L 223.378906 74.785156 L 218.046875 62.097656 L 207.777344 62.097656 L 202.402344 74.785156 " fill-opacity="1" fill-rule="nonzero"/><g clip-path="url(#9a84518374)"><path fill="#1800ad" d="M 230.21875 58.507812 L 216.539062 25.953125 L 202.863281 25.953125 L 223.378906 74.785156 L 230.21875 58.507812 " fill-opacity="1" fill-rule="nonzero"/></g><g clip-path="url(#cb71eda232)"><path fill="#054aca" d="M 202.863281 25.953125 L 179.171875 82.34375 L 192.847656 82.34375 L 216.539062 25.953125 L 202.863281 25.953125 " fill-opacity="1" fill-rule="nonzero"/></g><g clip-path="url(#957de05cfa)"><g transform="matrix(1, 0, 0, 1, -0.000000000000007105, -0.000000000000003553)"><g clip-path="url(#b2bb48171f)"><g fill="#053ec5" fill-opacity="1"><g transform="translate(0.290529, 50.825943)"><g><path d="M 30.859375 -32.078125 L 20.25 -32.078125 L 13.484375 0 L 9.375 0 L 16.140625 -32.078125 L 5.640625 -32.078125 L 6.40625 -35.875 L 31.625 -35.875 Z M 30.859375 -32.078125 "/></g></g></g><g fill="#053ec5" fill-opacity="1"><g transform="translate(28.157245, 50.825943)"><g><path d="M 25.875 -16.453125 L 9.578125 -16.453125 L 6.15625 0 L 2.046875 0 L 9.640625 -35.875 L 13.734375 -35.875 L 10.453125 -20.25 L 26.703125 -20.25 L 29.984375 -35.875 L 34.078125 -35.875 L 26.5 0 L 22.390625 0 Z M 25.875 -16.453125 "/></g></g></g><g fill="#053ec5" fill-opacity="1"><g transform="translate(61.709874, 50.825943)"><g><path d="M 9.6875 -35.875 L 28.1875 -35.875 L 27.421875 -32.078125 L 12.921875 -32.078125 L 10.40625 -20.34375 L 23.671875 -20.34375 L 22.90625 -16.546875 L 9.640625 -16.546875 L 6.921875 -3.796875 L 21.671875 -3.796875 L 20.859375 0 L 2.046875 0 Z M 9.6875 -35.875 "/></g></g></g></g></g></g><g transform="matrix(1, 0, 0, 1, 9, 47)"><g clip-path="url(#71277a7231)"><g fill="#121213" fill-opacity="1"><g transform="translate(0.989262, 35.68274)"><g><path d="M 21.5625 -12.953125 C 22.976562 -12.453125 24.085938 -11.675781 24.890625 -10.625 C 25.703125 -9.570312 26.109375 -8.300781 26.109375 -6.8125 C 26.109375 -4.632812 25.234375 -2.953125 23.484375 -1.765625 C 21.734375 -0.585938 19.203125 0 15.890625 0 L 2.484375 0 L 2.484375 -24.828125 L 15.1875 -24.828125 C 18.351562 -24.828125 20.765625 -24.238281 22.421875 -23.0625 C 24.078125 -21.894531 24.90625 -20.320312 24.90625 -18.34375 C 24.90625 -17.15625 24.613281 -16.09375 24.03125 -15.15625 C 23.445312 -14.226562 22.625 -13.492188 21.5625 -12.953125 Z M 9.4375 -19.75 L 9.4375 -14.96875 L 14.265625 -14.96875 C 16.628906 -14.96875 17.8125 -15.769531 17.8125 -17.375 C 17.8125 -18.957031 16.628906 -19.75 14.265625 -19.75 Z M 15.328125 -5.078125 C 17.785156 -5.078125 19.015625 -5.914062 19.015625 -7.59375 C 19.015625 -9.269531 17.785156 -10.109375 15.328125 -10.109375 L 9.4375 -10.109375 L 9.4375 -5.078125 Z M 15.328125 -5.078125 "/></g></g></g><g fill="#121213" fill-opacity="1"><g transform="translate(28.263139, 35.68274)"><g><path d="M 22.421875 -5.421875 L 22.421875 0 L 2.484375 0 L 2.484375 -24.828125 L 21.953125 -24.828125 L 21.953125 -19.40625 L 9.4375 -19.40625 L 9.4375 -15.21875 L 20.46875 -15.21875 L 20.46875 -9.96875 L 9.4375 -9.96875 L 9.4375 -5.421875 Z M 22.421875 -5.421875 "/></g></g></g><g fill="#121213" fill-opacity="1"><g transform="translate(52.096748, 35.68274)"><g><path d="M 26.109375 -24.828125 L 26.109375 0 L 20.328125 0 L 9.359375 -13.234375 L 9.359375 0 L 2.484375 0 L 2.484375 -24.828125 L 8.265625 -24.828125 L 19.21875 -11.59375 L 19.21875 -24.828125 Z M 26.109375 -24.828125 "/></g></g></g><g fill="#121213" fill-opacity="1"><g transform="translate(80.682894, 35.68274)"><g><path d="M 14.859375 0.5 C 12.253906 0.5 9.914062 -0.046875 7.84375 -1.140625 C 5.78125 -2.242188 4.15625 -3.773438 2.96875 -5.734375 C 1.789062 -7.703125 1.203125 -9.929688 1.203125 -12.421875 C 1.203125 -14.898438 1.789062 -17.117188 2.96875 -19.078125 C 4.15625 -21.046875 5.78125 -22.578125 7.84375 -23.671875 C 9.914062 -24.773438 12.253906 -25.328125 14.859375 -25.328125 C 17.128906 -25.328125 19.175781 -24.921875 21 -24.109375 C 22.820312 -23.304688 24.332031 -22.148438 25.53125 -20.640625 L 21.0625 -16.59375 C 19.457031 -18.539062 17.507812 -19.515625 15.21875 -19.515625 C 13.863281 -19.515625 12.660156 -19.21875 11.609375 -18.625 C 10.554688 -18.03125 9.738281 -17.191406 9.15625 -16.109375 C 8.582031 -15.035156 8.296875 -13.804688 8.296875 -12.421875 C 8.296875 -11.023438 8.582031 -9.785156 9.15625 -8.703125 C 9.738281 -7.628906 10.554688 -6.796875 11.609375 -6.203125 C 12.660156 -5.617188 13.863281 -5.328125 15.21875 -5.328125 C 17.507812 -5.328125 19.457031 -6.296875 21.0625 -8.234375 L 25.53125 -4.1875 C 24.332031 -2.675781 22.820312 -1.515625 21 -0.703125 C 19.175781 0.0976562 17.128906 0.5 14.859375 0.5 Z M 14.859375 0.5 "/></g></g></g><g fill="#121213" fill-opacity="1"><g transform="translate(106.857305, 35.68274)"><g><path d="M 26.109375 -24.828125 L 26.109375 0 L 19.078125 0 L 19.078125 -9.6875 L 9.5 -9.6875 L 9.5 0 L 2.484375 0 L 2.484375 -24.828125 L 9.5 -24.828125 L 9.5 -15.5 L 19.078125 -15.5 L 19.078125 -24.828125 Z M 26.109375 -24.828125 "/></g></g></g><g fill="#121213" fill-opacity="1"><g transform="translate(135.443451, 35.68274)"><g><path d="M 24.90625 0 L 24.828125 -13.15625 L 18.4375 -2.453125 L 15.328125 -2.453125 L 8.96875 -12.796875 L 8.96875 0 L 2.484375 0 L 2.484375 -24.828125 L 8.265625 -24.828125 L 16.984375 -10.5 L 25.5 -24.828125 L 31.28125 -24.828125 L 31.359375 0 Z M 24.90625 0 "/></g></g></g><g fill="#121213" fill-opacity="1"><g transform="translate(169.287305, 35.68274)"><g/></g></g><g fill="#121213" fill-opacity="1"><g transform="translate(179.60811, 35.68274)"><g/></g></g><g fill="#121213" fill-opacity="1"><g transform="translate(189.928915, 35.68274)"><g/></g></g><g fill="#121213" fill-opacity="1"><g transform="translate(200.249719, 35.68274)"><g/></g></g><g fill="#121213" fill-opacity="1"><g transform="translate(210.570524, 35.68274)"><g/></g></g><g fill="#121213" fill-opacity="1"><g transform="translate(220.891329, 35.68274)"><g/></g></g><g fill="#121213" fill-opacity="1"><g transform="translate(231.218506, 35.68274)"><g><path d="M 13.34375 -6.59375 L 9.5 -6.59375 L 9.5 0 L 2.484375 0 L 2.484375 -24.828125 L 13.828125 -24.828125 C 16.078125 -24.828125 18.03125 -24.453125 19.6875 -23.703125 C 21.34375 -22.960938 22.617188 -21.898438 23.515625 -20.515625 C 24.410156 -19.128906 24.859375 -17.503906 24.859375 -15.640625 C 24.859375 -13.847656 24.4375 -12.28125 23.59375 -10.9375 C 22.757812 -9.601562 21.5625 -8.554688 20 -7.796875 L 25.359375 0 L 17.84375 0 Z M 17.765625 -15.640625 C 17.765625 -16.796875 17.398438 -17.691406 16.671875 -18.328125 C 15.941406 -18.972656 14.851562 -19.296875 13.40625 -19.296875 L 9.5 -19.296875 L 9.5 -12.03125 L 13.40625 -12.03125 C 14.851562 -12.03125 15.941406 -12.34375 16.671875 -12.96875 C 17.398438 -13.59375 17.765625 -14.484375 17.765625 -15.640625 Z M 17.765625 -15.640625 "/></g></g></g><g fill="#121213" fill-opacity="1"><g transform="translate(257.463851, 35.68274)"><g><path d="M 12.0625 -9.015625 L 9.4375 -6.203125 L 9.4375 0 L 2.484375 0 L 2.484375 -24.828125 L 9.4375 -24.828125 L 9.4375 -14.5 L 19.046875 -24.828125 L 26.78125 -24.828125 L 16.640625 -13.828125 L 27.3125 0 L 19.15625 0 Z M 12.0625 -9.015625 "/></g></g></g></g></g><g clip-path="url(#02af7ba32b)"><g transform="matrix(1, 0, 0, 1, 136, 77)"><g clip-path="url(#30e0de7232)"><g fill="#0640c6" fill-opacity="1"><g transform="translate(0.263435, 37.999765)"><g><path d="M 29.484375 -29.21875 L 28.671875 -25.8125 L 19.859375 -25.8125 L 13.65625 0 L 9.578125 0 L 15.765625 -25.8125 L 6.953125 -25.8125 L 7.765625 -29.21875 Z M 29.484375 -29.21875 "/></g></g></g><g fill="#0640c6" fill-opacity="1"><g transform="translate(24.249932, 37.999765)"><g><path d="M 17.84375 -29.515625 C 20.957031 -29.515625 23.425781 -28.878906 25.25 -27.609375 C 27.082031 -26.347656 28 -24.5 28 -22.0625 C 28 -19.582031 27.273438 -17.503906 25.828125 -15.828125 C 24.378906 -14.160156 22.347656 -12.960938 19.734375 -12.234375 C 20.078125 -11.640625 20.472656 -10.882812 20.921875 -9.96875 C 21.367188 -9.0625 21.832031 -8.050781 22.3125 -6.9375 C 22.789062 -5.820312 23.253906 -4.664062 23.703125 -3.46875 C 24.148438 -2.28125 24.539062 -1.125 24.875 0 L 20.703125 0 C 20.304688 -1.070312 19.894531 -2.15625 19.46875 -3.25 C 19.050781 -4.34375 18.625 -5.394531 18.1875 -6.40625 C 17.757812 -7.414062 17.328125 -8.363281 16.890625 -9.25 C 16.453125 -10.132812 16.050781 -10.914062 15.6875 -11.59375 C 15.320312 -11.570312 14.957031 -11.550781 14.59375 -11.53125 C 14.226562 -11.519531 13.863281 -11.515625 13.5 -11.515625 L 10.25 -11.515625 L 7.5 0 L 3.421875 0 L 10.328125 -28.84375 C 11.515625 -29.125 12.765625 -29.304688 14.078125 -29.390625 C 15.398438 -29.472656 16.65625 -29.515625 17.84375 -29.515625 Z M 17.328125 -26.0625 C 15.335938 -26.0625 14.128906 -26.003906 13.703125 -25.890625 L 11.046875 -14.84375 L 13.53125 -14.84375 C 14.6875 -14.84375 15.867188 -14.925781 17.078125 -15.09375 C 18.285156 -15.257812 19.390625 -15.585938 20.390625 -16.078125 C 21.390625 -16.578125 22.203125 -17.269531 22.828125 -18.15625 C 23.460938 -19.039062 23.78125 -20.210938 23.78125 -21.671875 C 23.78125 -23.242188 23.179688 -24.367188 21.984375 -25.046875 C 20.796875 -25.722656 19.242188 -26.0625 17.328125 -26.0625 Z M 17.328125 -26.0625 "/></g></g></g><g fill="#0640c6" fill-opacity="1"><g transform="translate(50.512806, 37.999765)"><g><path d="M 9.03125 -7.5 L 4.890625 0 L 0.421875 0 C 3.566406 -5.675781 6.632812 -10.90625 9.625 -15.6875 C 12.625 -20.46875 15.585938 -24.976562 18.515625 -29.21875 L 22.515625 -29.21875 C 22.941406 -27.113281 23.328125 -24.984375 23.671875 -22.828125 C 24.023438 -20.679688 24.367188 -18.425781 24.703125 -16.0625 C 25.046875 -13.707031 25.367188 -11.207031 25.671875 -8.5625 C 25.984375 -5.914062 26.3125 -3.0625 26.65625 0 L 22.515625 0 C 22.378906 -1.257812 22.253906 -2.53125 22.140625 -3.8125 C 22.023438 -5.09375 21.898438 -6.320312 21.765625 -7.5 Z M 21.375 -10.796875 C 21.15625 -13.078125 20.894531 -15.335938 20.59375 -17.578125 C 20.300781 -19.828125 19.957031 -22.148438 19.5625 -24.546875 C 18.582031 -23.109375 17.359375 -21.257812 15.890625 -19 C 14.429688 -16.738281 12.773438 -14.003906 10.921875 -10.796875 Z M 21.375 -10.796875 "/></g></g></g><g fill="#0640c6" fill-opacity="1"><g transform="translate(77.913855, 37.999765)"><g><path d="M 17.5 -26.0625 C 15.394531 -26.0625 14.128906 -26.003906 13.703125 -25.890625 L 8.3125 -3.375 C 8.53125 -3.320312 8.90625 -3.269531 9.4375 -3.21875 C 9.976562 -3.175781 10.851562 -3.15625 12.0625 -3.15625 C 14.28125 -3.15625 16.28125 -3.523438 18.0625 -4.265625 C 19.851562 -5.015625 21.363281 -6.054688 22.59375 -7.390625 C 23.832031 -8.734375 24.789062 -10.320312 25.46875 -12.15625 C 26.144531 -14 26.484375 -16.019531 26.484375 -18.21875 C 26.484375 -20.6875 25.765625 -22.609375 24.328125 -23.984375 C 22.898438 -25.367188 20.625 -26.0625 17.5 -26.0625 Z M 17.84375 -29.515625 C 22.164062 -29.515625 25.394531 -28.492188 27.53125 -26.453125 C 29.675781 -24.421875 30.75 -21.675781 30.75 -18.21875 C 30.75 -15.800781 30.367188 -13.472656 29.609375 -11.234375 C 28.847656 -9.003906 27.664062 -7.03125 26.0625 -5.3125 C 24.457031 -3.59375 22.410156 -2.226562 19.921875 -1.21875 C 17.429688 -0.207031 14.457031 0.296875 11 0.296875 C 9.820312 0.296875 8.546875 0.238281 7.171875 0.125 C 5.796875 0.0078125 4.585938 -0.1875 3.546875 -0.46875 L 10.328125 -28.84375 C 11.515625 -29.125 12.765625 -29.304688 14.078125 -29.390625 C 15.398438 -29.472656 16.65625 -29.515625 17.84375 -29.515625 Z M 17.84375 -29.515625 "/></g></g></g><g fill="#0640c6" fill-opacity="1"><g transform="translate(107.633451, 37.999765)"><g><path d="M 3.421875 0 L 10.421875 -29.21875 L 27.671875 -29.21875 L 26.859375 -25.8125 L 13.65625 -25.8125 L 11.5625 -17 L 23.28125 -17 L 22.484375 -13.65625 L 10.796875 -13.65625 L 8.3125 -3.421875 L 22.484375 -3.421875 L 21.671875 0 Z M 3.421875 0 "/></g></g></g><g fill="#0640c6" fill-opacity="1"><g transform="translate(131.704261, 37.999765)"><g><path d="M 17.84375 -29.515625 C 20.957031 -29.515625 23.425781 -28.878906 25.25 -27.609375 C 27.082031 -26.347656 28 -24.5 28 -22.0625 C 28 -19.582031 27.273438 -17.503906 25.828125 -15.828125 C 24.378906 -14.160156 22.347656 -12.960938 19.734375 -12.234375 C 20.078125 -11.640625 20.472656 -10.882812 20.921875 -9.96875 C 21.367188 -9.0625 21.832031 -8.050781 22.3125 -6.9375 C 22.789062 -5.820312 23.253906 -4.664062 23.703125 -3.46875 C 24.148438 -2.28125 24.539062 -1.125 24.875 0 L 20.703125 0 C 20.304688 -1.070312 19.894531 -2.15625 19.46875 -3.25 C 19.050781 -4.34375 18.625 -5.394531 18.1875 -6.40625 C 17.757812 -7.414062 17.328125 -8.363281 16.890625 -9.25 C 16.453125 -10.132812 16.050781 -10.914062 15.6875 -11.59375 C 15.320312 -11.570312 14.957031 -11.550781 14.59375 -11.53125 C 14.226562 -11.519531 13.863281 -11.515625 13.5 -11.515625 L 10.25 -11.515625 L 7.5 0 L 3.421875 0 L 10.328125 -28.84375 C 11.515625 -29.125 12.765625 -29.304688 14.078125 -29.390625 C 15.398438 -29.472656 16.65625 -29.515625 17.84375 -29.515625 Z M 17.328125 -26.0625 C 15.335938 -26.0625 14.128906 -26.003906 13.703125 -25.890625 L 11.046875 -14.84375 L 13.53125 -14.84375 C 14.6875 -14.84375 15.867188 -14.925781 17.078125 -15.09375 C 18.285156 -15.257812 19.390625 -15.585938 20.390625 -16.078125 C 21.390625 -16.578125 22.203125 -17.269531 22.828125 -18.15625 C 23.460938 -19.039062 23.78125 -20.210938 23.78125 -21.671875 C 23.78125 -23.242188 23.179688 -24.367188 21.984375 -25.046875 C 20.796875 -25.722656 19.242188 -26.0625 17.328125 -26.0625 Z M 17.328125 -26.0625 "/></g></g></g></g></g></g></g></g></svg>