<svg xmlns="http://www.w3.org/2000/svg" xmlns:xlink="http://www.w3.org/1999/xlink" width="1920" zoomAndPan="magnify" viewBox="0 0 1440 225" height="300" preserveAspectRatio="xMidYMid meet" version="1.0"><defs><g/><clipPath id="74126806b7"><path d="M 934.390625 95 L 1134.640625 95 L 1134.640625 149 L 934.390625 149 Z M 934.390625 95 " clip-rule="nonzero"/></clipPath><clipPath id="e1bd21a6e5"><path d="M 938 90.105469 L 1131 90.105469 L 1131 140 L 938 140 Z M 938 90.105469 " clip-rule="nonzero"/></clipPath><clipPath id="d33d7ab86b"><path d="M 1077 132 L 1114 132 L 1114 180.105469 L 1077 180.105469 Z M 1077 132 " clip-rule="nonzero"/></clipPath></defs><rect x="-144" width="1728" fill="#ffffff" y="-22.5" height="270" fill-opacity="1"/><rect x="-144" width="1728" fill="#0640c6" y="-22.5" height="270" fill-opacity="1"/><g fill="#ffffff" fill-opacity="1"><g transform="translate(211.579592, 91.036013)"><g><path d="M 33.296875 -42.03125 L 33.296875 -36.9375 L 20.078125 -36.9375 L 20.078125 0 L 14.1875 0 L 14.1875 -36.9375 L 0.96875 -36.9375 L 0.96875 -42.03125 Z M 33.296875 -42.03125 "/></g></g></g><g fill="#ffffff" fill-opacity="1"><g transform="translate(245.843773, 91.036013)"><g><path d="M 25.765625 -17.578125 C 26.421875 -16.773438 27.242188 -15.71875 28.234375 -14.40625 C 29.222656 -13.09375 30.242188 -11.632812 31.296875 -10.03125 C 32.347656 -8.4375 33.382812 -6.769531 34.40625 -5.03125 C 35.4375 -3.289062 36.316406 -1.613281 37.046875 0 L 30.625 0 C 29.8125 -1.53125 28.929688 -3.082031 27.984375 -4.65625 C 27.035156 -6.238281 26.078125 -7.75 25.109375 -9.1875 C 24.140625 -10.625 23.175781 -11.96875 22.21875 -13.21875 C 21.269531 -14.46875 20.410156 -15.5625 19.640625 -16.5 C 19.117188 -16.457031 18.582031 -16.4375 18.03125 -16.4375 C 17.488281 -16.4375 16.9375 -16.4375 16.375 -16.4375 L 11.09375 -16.4375 L 11.09375 0 L 5.21875 0 L 5.21875 -41.421875 C 6.875 -41.828125 8.722656 -42.097656 10.765625 -42.234375 C 12.804688 -42.378906 14.675781 -42.453125 16.375 -42.453125 C 22.269531 -42.453125 26.765625 -41.335938 29.859375 -39.109375 C 32.953125 -36.890625 34.5 -33.578125 34.5 -29.171875 C 34.5 -26.378906 33.757812 -23.992188 32.28125 -22.015625 C 30.8125 -20.035156 28.640625 -18.554688 25.765625 -17.578125 Z M 16.859375 -37.296875 C 14.347656 -37.296875 12.425781 -37.234375 11.09375 -37.109375 L 11.09375 -21.28125 L 15.28125 -21.28125 C 17.300781 -21.28125 19.117188 -21.378906 20.734375 -21.578125 C 22.359375 -21.785156 23.722656 -22.171875 24.828125 -22.734375 C 25.941406 -23.304688 26.800781 -24.109375 27.40625 -25.140625 C 28.007812 -26.171875 28.3125 -27.535156 28.3125 -29.234375 C 28.3125 -30.804688 28.007812 -32.117188 27.40625 -33.171875 C 26.800781 -34.222656 25.984375 -35.050781 24.953125 -35.65625 C 23.921875 -36.257812 22.707031 -36.679688 21.3125 -36.921875 C 19.914062 -37.171875 18.429688 -37.296875 16.859375 -37.296875 Z M 16.859375 -37.296875 "/></g></g></g><g fill="#ffffff" fill-opacity="1"><g transform="translate(283.989206, 91.036013)"><g><path d="M 33.296875 0 C 32.609375 -1.820312 31.957031 -3.609375 31.34375 -5.359375 C 30.738281 -7.117188 30.113281 -8.910156 29.46875 -10.734375 L 10.4375 -10.734375 L 6.609375 0 L 0.484375 0 C 2.097656 -4.445312 3.613281 -8.5625 5.03125 -12.34375 C 6.445312 -16.125 7.832031 -19.710938 9.1875 -23.109375 C 10.539062 -26.503906 11.882812 -29.742188 13.21875 -32.828125 C 14.550781 -35.921875 15.945312 -38.988281 17.40625 -42.03125 L 22.796875 -42.03125 C 24.253906 -38.988281 25.648438 -35.921875 26.984375 -32.828125 C 28.316406 -29.742188 29.660156 -26.503906 31.015625 -23.109375 C 32.367188 -19.710938 33.753906 -16.125 35.171875 -12.34375 C 36.585938 -8.5625 38.101562 -4.445312 39.71875 0 Z M 27.765625 -15.578125 C 26.472656 -19.097656 25.191406 -22.503906 23.921875 -25.796875 C 22.648438 -29.097656 21.328125 -32.265625 19.953125 -35.296875 C 18.535156 -32.265625 17.191406 -29.097656 15.921875 -25.796875 C 14.648438 -22.503906 13.382812 -19.097656 12.125 -15.578125 Z M 27.765625 -15.578125 "/></g></g></g><g fill="#ffffff" fill-opacity="1"><g transform="translate(324.196556, 91.036013)"><g><path d="M 39.71875 -21.046875 C 39.71875 -17.398438 39.148438 -14.234375 38.015625 -11.546875 C 36.890625 -8.859375 35.296875 -6.632812 33.234375 -4.875 C 31.171875 -3.125 28.703125 -1.8125 25.828125 -0.9375 C 22.960938 -0.0703125 19.8125 0.359375 16.375 0.359375 C 14.675781 0.359375 12.804688 0.285156 10.765625 0.140625 C 8.722656 0.00390625 6.875 -0.265625 5.21875 -0.671875 L 5.21875 -41.421875 C 6.875 -41.828125 8.722656 -42.097656 10.765625 -42.234375 C 12.804688 -42.378906 14.675781 -42.453125 16.375 -42.453125 C 19.8125 -42.453125 22.960938 -42.015625 25.828125 -41.140625 C 28.703125 -40.273438 31.171875 -38.960938 33.234375 -37.203125 C 35.296875 -35.441406 36.890625 -33.21875 38.015625 -30.53125 C 39.148438 -27.84375 39.71875 -24.679688 39.71875 -21.046875 Z M 16.859375 -4.796875 C 22.429688 -4.796875 26.59375 -6.21875 29.34375 -9.0625 C 32.09375 -11.914062 33.46875 -15.910156 33.46875 -21.046875 C 33.46875 -26.179688 32.09375 -30.171875 29.34375 -33.015625 C 26.59375 -35.867188 22.429688 -37.296875 16.859375 -37.296875 C 15.203125 -37.296875 13.914062 -37.273438 13 -37.234375 C 12.09375 -37.191406 11.457031 -37.148438 11.09375 -37.109375 L 11.09375 -4.96875 C 11.457031 -4.925781 12.09375 -4.882812 13 -4.84375 C 13.914062 -4.8125 15.203125 -4.796875 16.859375 -4.796875 Z M 16.859375 -4.796875 "/></g></g></g><g fill="#ffffff" fill-opacity="1"><g transform="translate(367.436133, 91.036013)"><g><path d="M 5.21875 0 L 5.21875 -42.03125 L 30.859375 -42.03125 L 30.859375 -36.984375 L 11.09375 -36.984375 L 11.09375 -24.5 L 28.6875 -24.5 L 28.6875 -19.59375 L 11.09375 -19.59375 L 11.09375 -5.03125 L 32.375 -5.03125 L 32.375 0 Z M 5.21875 0 "/></g></g></g><g fill="#ffffff" fill-opacity="1"><g transform="translate(402.064179, 91.036013)"><g/></g></g><g fill="#ffffff" fill-opacity="1"><g transform="translate(416.073075, 91.036013)"><g><path d="M 14.984375 -4.1875 C 21.128906 -4.1875 24.203125 -6.285156 24.203125 -10.484375 C 24.203125 -11.785156 23.925781 -12.890625 23.375 -13.796875 C 22.832031 -14.703125 22.09375 -15.488281 21.15625 -16.15625 C 20.226562 -16.820312 19.164062 -17.394531 17.96875 -17.875 C 16.78125 -18.363281 15.519531 -18.851562 14.1875 -19.34375 C 12.65625 -19.863281 11.203125 -20.457031 9.828125 -21.125 C 8.453125 -21.800781 7.257812 -22.59375 6.25 -23.5 C 5.238281 -24.40625 4.4375 -25.484375 3.84375 -26.734375 C 3.257812 -27.992188 2.96875 -29.515625 2.96875 -31.296875 C 2.96875 -34.972656 4.21875 -37.84375 6.71875 -39.90625 C 9.226562 -41.96875 12.6875 -43 17.09375 -43 C 19.644531 -43 21.960938 -42.722656 24.046875 -42.171875 C 26.128906 -41.628906 27.65625 -41.035156 28.625 -40.390625 L 26.75 -35.59375 C 25.894531 -36.125 24.628906 -36.640625 22.953125 -37.140625 C 21.273438 -37.648438 19.320312 -37.90625 17.09375 -37.90625 C 15.96875 -37.90625 14.914062 -37.78125 13.9375 -37.53125 C 12.96875 -37.289062 12.117188 -36.925781 11.390625 -36.4375 C 10.671875 -35.957031 10.097656 -35.34375 9.671875 -34.59375 C 9.242188 -33.84375 9.03125 -32.960938 9.03125 -31.953125 C 9.03125 -30.828125 9.253906 -29.878906 9.703125 -29.109375 C 10.148438 -28.335938 10.773438 -27.660156 11.578125 -27.078125 C 12.390625 -26.492188 13.332031 -25.957031 14.40625 -25.46875 C 15.476562 -24.976562 16.660156 -24.492188 17.953125 -24.015625 C 19.765625 -23.285156 21.425781 -22.554688 22.9375 -21.828125 C 24.457031 -21.097656 25.773438 -20.226562 26.890625 -19.21875 C 28.003906 -18.207031 28.863281 -17.003906 29.46875 -15.609375 C 30.070312 -14.210938 30.375 -12.523438 30.375 -10.546875 C 30.375 -6.867188 29.03125 -4.039062 26.34375 -2.0625 C 23.65625 -0.0820312 19.867188 0.90625 14.984375 0.90625 C 13.316406 0.90625 11.785156 0.796875 10.390625 0.578125 C 9.003906 0.359375 7.765625 0.0976562 6.671875 -0.203125 C 5.578125 -0.515625 4.632812 -0.84375 3.84375 -1.1875 C 3.0625 -1.53125 2.445312 -1.820312 2 -2.0625 L 3.765625 -6.90625 C 4.691406 -6.382812 6.101562 -5.800781 8 -5.15625 C 9.90625 -4.507812 12.234375 -4.1875 14.984375 -4.1875 Z M 14.984375 -4.1875 "/></g></g></g><g fill="#ffffff" fill-opacity="1"><g transform="translate(448.335983, 91.036013)"><g><path d="M 24.078125 -5.828125 C 23.671875 -6.796875 23.132812 -8.023438 22.46875 -9.515625 C 21.800781 -11.015625 21.082031 -12.632812 20.3125 -14.375 C 19.539062 -16.113281 18.722656 -17.898438 17.859375 -19.734375 C 16.992188 -21.578125 16.175781 -23.316406 15.40625 -24.953125 C 14.632812 -26.585938 13.914062 -28.050781 13.25 -29.34375 C 12.582031 -30.644531 12.046875 -31.640625 11.640625 -32.328125 C 11.191406 -27.554688 10.828125 -22.390625 10.546875 -16.828125 C 10.265625 -11.265625 10.023438 -5.65625 9.828125 0 L 4.0625 0 C 4.226562 -3.632812 4.410156 -7.300781 4.609375 -11 C 4.804688 -14.707031 5.035156 -18.347656 5.296875 -21.921875 C 5.566406 -25.492188 5.851562 -28.976562 6.15625 -32.375 C 6.457031 -35.769531 6.789062 -38.988281 7.15625 -42.03125 L 12.3125 -42.03125 C 13.40625 -40.25 14.578125 -38.144531 15.828125 -35.71875 C 17.078125 -33.289062 18.328125 -30.753906 19.578125 -28.109375 C 20.835938 -25.460938 22.050781 -22.8125 23.21875 -20.15625 C 24.394531 -17.507812 25.46875 -15.097656 26.4375 -12.921875 C 27.40625 -15.097656 28.472656 -17.507812 29.640625 -20.15625 C 30.816406 -22.8125 32.03125 -25.460938 33.28125 -28.109375 C 34.539062 -30.753906 35.796875 -33.289062 37.046875 -35.71875 C 38.304688 -38.144531 39.476562 -40.25 40.5625 -42.03125 L 45.71875 -42.03125 C 47.09375 -28.476562 48.125 -14.46875 48.8125 0 L 43.0625 0 C 42.851562 -5.65625 42.609375 -11.265625 42.328125 -16.828125 C 42.046875 -22.390625 41.679688 -27.554688 41.234375 -32.328125 C 40.828125 -31.640625 40.289062 -30.644531 39.625 -29.34375 C 38.957031 -28.050781 38.238281 -26.585938 37.46875 -24.953125 C 36.707031 -23.316406 35.890625 -21.578125 35.015625 -19.734375 C 34.148438 -17.898438 33.332031 -16.113281 32.5625 -14.375 C 31.789062 -12.632812 31.070312 -11.015625 30.40625 -9.515625 C 29.738281 -8.023438 29.203125 -6.796875 28.796875 -5.828125 Z M 24.078125 -5.828125 "/></g></g></g><g fill="#ffffff" fill-opacity="1"><g transform="translate(501.157399, 91.036013)"><g><path d="M 33.296875 0 C 32.609375 -1.820312 31.957031 -3.609375 31.34375 -5.359375 C 30.738281 -7.117188 30.113281 -8.910156 29.46875 -10.734375 L 10.4375 -10.734375 L 6.609375 0 L 0.484375 0 C 2.097656 -4.445312 3.613281 -8.5625 5.03125 -12.34375 C 6.445312 -16.125 7.832031 -19.710938 9.1875 -23.109375 C 10.539062 -26.503906 11.882812 -29.742188 13.21875 -32.828125 C 14.550781 -35.921875 15.945312 -38.988281 17.40625 -42.03125 L 22.796875 -42.03125 C 24.253906 -38.988281 25.648438 -35.921875 26.984375 -32.828125 C 28.316406 -29.742188 29.660156 -26.503906 31.015625 -23.109375 C 32.367188 -19.710938 33.753906 -16.125 35.171875 -12.34375 C 36.585938 -8.5625 38.101562 -4.445312 39.71875 0 Z M 27.765625 -15.578125 C 26.472656 -19.097656 25.191406 -22.503906 23.921875 -25.796875 C 22.648438 -29.097656 21.328125 -32.265625 19.953125 -35.296875 C 18.535156 -32.265625 17.191406 -29.097656 15.921875 -25.796875 C 14.648438 -22.503906 13.382812 -19.097656 12.125 -15.578125 Z M 27.765625 -15.578125 "/></g></g></g><g fill="#ffffff" fill-opacity="1"><g transform="translate(541.364749, 91.036013)"><g><path d="M 25.765625 -17.578125 C 26.421875 -16.773438 27.242188 -15.71875 28.234375 -14.40625 C 29.222656 -13.09375 30.242188 -11.632812 31.296875 -10.03125 C 32.347656 -8.4375 33.382812 -6.769531 34.40625 -5.03125 C 35.4375 -3.289062 36.316406 -1.613281 37.046875 0 L 30.625 0 C 29.8125 -1.53125 28.929688 -3.082031 27.984375 -4.65625 C 27.035156 -6.238281 26.078125 -7.75 25.109375 -9.1875 C 24.140625 -10.625 23.175781 -11.96875 22.21875 -13.21875 C 21.269531 -14.46875 20.410156 -15.5625 19.640625 -16.5 C 19.117188 -16.457031 18.582031 -16.4375 18.03125 -16.4375 C 17.488281 -16.4375 16.9375 -16.4375 16.375 -16.4375 L 11.09375 -16.4375 L 11.09375 0 L 5.21875 0 L 5.21875 -41.421875 C 6.875 -41.828125 8.722656 -42.097656 10.765625 -42.234375 C 12.804688 -42.378906 14.675781 -42.453125 16.375 -42.453125 C 22.269531 -42.453125 26.765625 -41.335938 29.859375 -39.109375 C 32.953125 -36.890625 34.5 -33.578125 34.5 -29.171875 C 34.5 -26.378906 33.757812 -23.992188 32.28125 -22.015625 C 30.8125 -20.035156 28.640625 -18.554688 25.765625 -17.578125 Z M 16.859375 -37.296875 C 14.347656 -37.296875 12.425781 -37.234375 11.09375 -37.109375 L 11.09375 -21.28125 L 15.28125 -21.28125 C 17.300781 -21.28125 19.117188 -21.378906 20.734375 -21.578125 C 22.359375 -21.785156 23.722656 -22.171875 24.828125 -22.734375 C 25.941406 -23.304688 26.800781 -24.109375 27.40625 -25.140625 C 28.007812 -26.171875 28.3125 -27.535156 28.3125 -29.234375 C 28.3125 -30.804688 28.007812 -32.117188 27.40625 -33.171875 C 26.800781 -34.222656 25.984375 -35.050781 24.953125 -35.65625 C 23.921875 -36.257812 22.707031 -36.679688 21.3125 -36.921875 C 19.914062 -37.171875 18.429688 -37.296875 16.859375 -37.296875 Z M 16.859375 -37.296875 "/></g></g></g><g fill="#ffffff" fill-opacity="1"><g transform="translate(579.510194, 91.036013)"><g><path d="M 33.296875 -42.03125 L 33.296875 -36.9375 L 20.078125 -36.9375 L 20.078125 0 L 14.1875 0 L 14.1875 -36.9375 L 0.96875 -36.9375 L 0.96875 -42.03125 Z M 33.296875 -42.03125 "/></g></g></g><g fill="#ffffff" fill-opacity="1"><g transform="translate(204.032717, 175.78601)"><g><path d="M 30.859375 -20.671875 L 36.75 -20.671875 L 36.75 -1.03125 C 36.257812 -0.863281 35.5625 -0.679688 34.65625 -0.484375 C 33.75 -0.285156 32.695312 -0.0859375 31.5 0.109375 C 30.3125 0.316406 29.007812 0.488281 27.59375 0.625 C 26.175781 0.769531 24.738281 0.84375 23.28125 0.84375 C 20.332031 0.84375 17.644531 0.359375 15.21875 -0.609375 C 12.789062 -1.578125 10.707031 -2.988281 8.96875 -4.84375 C 7.238281 -6.707031 5.894531 -8.992188 4.9375 -11.703125 C 3.988281 -14.410156 3.515625 -17.523438 3.515625 -21.046875 C 3.515625 -24.554688 4.050781 -27.675781 5.125 -30.40625 C 6.195312 -33.132812 7.640625 -35.425781 9.453125 -37.28125 C 11.273438 -39.144531 13.410156 -40.5625 15.859375 -41.53125 C 18.304688 -42.507812 20.921875 -43 23.703125 -43 C 25.609375 -43 27.296875 -42.875 28.765625 -42.625 C 30.242188 -42.382812 31.507812 -42.101562 32.5625 -41.78125 C 33.613281 -41.457031 34.472656 -41.132812 35.140625 -40.8125 C 35.804688 -40.488281 36.257812 -40.242188 36.5 -40.078125 L 34.625 -35.171875 C 33.457031 -35.941406 31.898438 -36.578125 29.953125 -37.078125 C 28.015625 -37.585938 26.035156 -37.84375 24.015625 -37.84375 C 21.867188 -37.84375 19.914062 -37.457031 18.15625 -36.6875 C 16.40625 -35.914062 14.910156 -34.800781 13.671875 -33.34375 C 12.441406 -31.894531 11.484375 -30.128906 10.796875 -28.046875 C 10.109375 -25.960938 9.765625 -23.628906 9.765625 -21.046875 C 9.765625 -18.535156 10.054688 -16.25 10.640625 -14.1875 C 11.222656 -12.125 12.109375 -10.351562 13.296875 -8.875 C 14.492188 -7.40625 15.972656 -6.265625 17.734375 -5.453125 C 19.492188 -4.648438 21.566406 -4.25 23.953125 -4.25 C 25.648438 -4.25 27.09375 -4.335938 28.28125 -4.515625 C 29.476562 -4.703125 30.335938 -4.875 30.859375 -5.03125 Z M 30.859375 -20.671875 "/></g></g></g><g fill="#ffffff" fill-opacity="1"><g transform="translate(244.78587, 175.78601)"><g><path d="M 25.765625 -17.578125 C 26.421875 -16.773438 27.242188 -15.71875 28.234375 -14.40625 C 29.222656 -13.09375 30.242188 -11.632812 31.296875 -10.03125 C 32.347656 -8.4375 33.382812 -6.769531 34.40625 -5.03125 C 35.4375 -3.289062 36.316406 -1.613281 37.046875 0 L 30.625 0 C 29.8125 -1.53125 28.929688 -3.082031 27.984375 -4.65625 C 27.035156 -6.238281 26.078125 -7.75 25.109375 -9.1875 C 24.140625 -10.625 23.175781 -11.96875 22.21875 -13.21875 C 21.269531 -14.46875 20.410156 -15.5625 19.640625 -16.5 C 19.117188 -16.457031 18.582031 -16.4375 18.03125 -16.4375 C 17.488281 -16.4375 16.9375 -16.4375 16.375 -16.4375 L 11.09375 -16.4375 L 11.09375 0 L 5.21875 0 L 5.21875 -41.421875 C 6.875 -41.828125 8.722656 -42.097656 10.765625 -42.234375 C 12.804688 -42.378906 14.675781 -42.453125 16.375 -42.453125 C 22.269531 -42.453125 26.765625 -41.335938 29.859375 -39.109375 C 32.953125 -36.890625 34.5 -33.578125 34.5 -29.171875 C 34.5 -26.378906 33.757812 -23.992188 32.28125 -22.015625 C 30.8125 -20.035156 28.640625 -18.554688 25.765625 -17.578125 Z M 16.859375 -37.296875 C 14.347656 -37.296875 12.425781 -37.234375 11.09375 -37.109375 L 11.09375 -21.28125 L 15.28125 -21.28125 C 17.300781 -21.28125 19.117188 -21.378906 20.734375 -21.578125 C 22.359375 -21.785156 23.722656 -22.171875 24.828125 -22.734375 C 25.941406 -23.304688 26.800781 -24.109375 27.40625 -25.140625 C 28.007812 -26.171875 28.3125 -27.535156 28.3125 -29.234375 C 28.3125 -30.804688 28.007812 -32.117188 27.40625 -33.171875 C 26.800781 -34.222656 25.984375 -35.050781 24.953125 -35.65625 C 23.921875 -36.257812 22.707031 -36.679688 21.3125 -36.921875 C 19.914062 -37.171875 18.429688 -37.296875 16.859375 -37.296875 Z M 16.859375 -37.296875 "/></g></g></g><g fill="#ffffff" fill-opacity="1"><g transform="translate(282.931304, 175.78601)"><g><path d="M 3.515625 -21.046875 C 3.515625 -24.640625 4.050781 -27.8125 5.125 -30.5625 C 6.195312 -33.3125 7.648438 -35.601562 9.484375 -37.4375 C 11.328125 -39.28125 13.472656 -40.664062 15.921875 -41.59375 C 18.367188 -42.53125 20.960938 -43 23.703125 -43 C 26.410156 -43 28.96875 -42.53125 31.375 -41.59375 C 33.78125 -40.664062 35.894531 -39.28125 37.71875 -37.4375 C 39.539062 -35.601562 40.984375 -33.3125 42.046875 -30.5625 C 43.117188 -27.8125 43.65625 -24.640625 43.65625 -21.046875 C 43.65625 -17.441406 43.117188 -14.265625 42.046875 -11.515625 C 40.984375 -8.765625 39.539062 -6.46875 37.71875 -4.625 C 35.894531 -2.789062 33.78125 -1.410156 31.375 -0.484375 C 28.96875 0.441406 26.410156 0.90625 23.703125 0.90625 C 20.960938 0.90625 18.367188 0.441406 15.921875 -0.484375 C 13.472656 -1.410156 11.328125 -2.789062 9.484375 -4.625 C 7.648438 -6.46875 6.195312 -8.765625 5.125 -11.515625 C 4.050781 -14.265625 3.515625 -17.441406 3.515625 -21.046875 Z M 9.703125 -21.046875 C 9.703125 -18.492188 10.023438 -16.175781 10.671875 -14.09375 C 11.316406 -12.007812 12.234375 -10.238281 13.421875 -8.78125 C 14.617188 -7.332031 16.078125 -6.210938 17.796875 -5.421875 C 19.515625 -4.640625 21.445312 -4.25 23.59375 -4.25 C 25.726562 -4.25 27.644531 -4.640625 29.34375 -5.421875 C 31.039062 -6.210938 32.484375 -7.332031 33.671875 -8.78125 C 34.867188 -10.238281 35.789062 -12.007812 36.4375 -14.09375 C 37.09375 -16.175781 37.421875 -18.492188 37.421875 -21.046875 C 37.421875 -23.585938 37.09375 -25.898438 36.4375 -27.984375 C 35.789062 -30.066406 34.867188 -31.832031 33.671875 -33.28125 C 32.484375 -34.738281 31.039062 -35.863281 29.34375 -36.65625 C 27.644531 -37.445312 25.726562 -37.84375 23.59375 -37.84375 C 21.445312 -37.84375 19.515625 -37.445312 17.796875 -36.65625 C 16.078125 -35.863281 14.617188 -34.738281 13.421875 -33.28125 C 12.234375 -31.832031 11.316406 -30.066406 10.671875 -27.984375 C 10.023438 -25.898438 9.703125 -23.585938 9.703125 -21.046875 Z M 9.703125 -21.046875 "/></g></g></g><g fill="#ffffff" fill-opacity="1"><g transform="translate(330.112774, 175.78601)"><g><path d="M 28.203125 -28.5 C 26.503906 -23.082031 24.785156 -18.066406 23.046875 -13.453125 C 21.304688 -8.847656 19.566406 -4.363281 17.828125 0 L 11.953125 0 C 9.804688 -6.1875 7.914062 -12.710938 6.28125 -19.578125 C 4.644531 -26.453125 3.117188 -33.9375 1.703125 -42.03125 L 7.890625 -42.03125 C 8.453125 -38.875 9.035156 -35.71875 9.640625 -32.5625 C 10.242188 -29.40625 10.867188 -26.34375 11.515625 -23.375 C 12.160156 -20.40625 12.804688 -17.566406 13.453125 -14.859375 C 14.109375 -12.148438 14.78125 -9.644531 15.46875 -7.34375 C 17.082031 -11.582031 18.796875 -16.238281 20.609375 -21.3125 C 22.429688 -26.382812 24.132812 -31.628906 25.71875 -37.046875 L 30.8125 -37.046875 C 32.382812 -31.628906 34.097656 -26.382812 35.953125 -21.3125 C 37.816406 -16.238281 39.554688 -11.582031 41.171875 -7.34375 C 41.816406 -9.601562 42.460938 -12.085938 43.109375 -14.796875 C 43.753906 -17.503906 44.390625 -20.34375 45.015625 -23.3125 C 45.648438 -26.28125 46.269531 -29.351562 46.875 -32.53125 C 47.476562 -35.707031 48.066406 -38.875 48.640625 -42.03125 L 54.640625 -42.03125 C 53.179688 -33.9375 51.632812 -26.453125 50 -19.578125 C 48.363281 -12.710938 46.492188 -6.1875 44.390625 0 L 38.5 0 C 36.726562 -4.363281 34.992188 -8.847656 33.296875 -13.453125 C 31.597656 -18.066406 29.898438 -23.082031 28.203125 -28.5 Z M 28.203125 -28.5 "/></g></g></g><g fill="#ffffff" fill-opacity="1"><g transform="translate(386.451578, 175.78601)"><g/></g></g><g fill="#ffffff" fill-opacity="1"><g transform="translate(400.460473, 175.78601)"><g><path d="M 14.984375 -4.1875 C 21.128906 -4.1875 24.203125 -6.285156 24.203125 -10.484375 C 24.203125 -11.785156 23.925781 -12.890625 23.375 -13.796875 C 22.832031 -14.703125 22.09375 -15.488281 21.15625 -16.15625 C 20.226562 -16.820312 19.164062 -17.394531 17.96875 -17.875 C 16.78125 -18.363281 15.519531 -18.851562 14.1875 -19.34375 C 12.65625 -19.863281 11.203125 -20.457031 9.828125 -21.125 C 8.453125 -21.800781 7.257812 -22.59375 6.25 -23.5 C 5.238281 -24.40625 4.4375 -25.484375 3.84375 -26.734375 C 3.257812 -27.992188 2.96875 -29.515625 2.96875 -31.296875 C 2.96875 -34.972656 4.21875 -37.84375 6.71875 -39.90625 C 9.226562 -41.96875 12.6875 -43 17.09375 -43 C 19.644531 -43 21.960938 -42.722656 24.046875 -42.171875 C 26.128906 -41.628906 27.65625 -41.035156 28.625 -40.390625 L 26.75 -35.59375 C 25.894531 -36.125 24.628906 -36.640625 22.953125 -37.140625 C 21.273438 -37.648438 19.320312 -37.90625 17.09375 -37.90625 C 15.96875 -37.90625 14.914062 -37.78125 13.9375 -37.53125 C 12.96875 -37.289062 12.117188 -36.925781 11.390625 -36.4375 C 10.671875 -35.957031 10.097656 -35.34375 9.671875 -34.59375 C 9.242188 -33.84375 9.03125 -32.960938 9.03125 -31.953125 C 9.03125 -30.828125 9.253906 -29.878906 9.703125 -29.109375 C 10.148438 -28.335938 10.773438 -27.660156 11.578125 -27.078125 C 12.390625 -26.492188 13.332031 -25.957031 14.40625 -25.46875 C 15.476562 -24.976562 16.660156 -24.492188 17.953125 -24.015625 C 19.765625 -23.285156 21.425781 -22.554688 22.9375 -21.828125 C 24.457031 -21.097656 25.773438 -20.226562 26.890625 -19.21875 C 28.003906 -18.207031 28.863281 -17.003906 29.46875 -15.609375 C 30.070312 -14.210938 30.375 -12.523438 30.375 -10.546875 C 30.375 -6.867188 29.03125 -4.039062 26.34375 -2.0625 C 23.65625 -0.0820312 19.867188 0.90625 14.984375 0.90625 C 13.316406 0.90625 11.785156 0.796875 10.390625 0.578125 C 9.003906 0.359375 7.765625 0.0976562 6.671875 -0.203125 C 5.578125 -0.515625 4.632812 -0.84375 3.84375 -1.1875 C 3.0625 -1.53125 2.445312 -1.820312 2 -2.0625 L 3.765625 -6.90625 C 4.691406 -6.382812 6.101562 -5.800781 8 -5.15625 C 9.90625 -4.507812 12.234375 -4.1875 14.984375 -4.1875 Z M 14.984375 -4.1875 "/></g></g></g><g fill="#ffffff" fill-opacity="1"><g transform="translate(432.723381, 175.78601)"><g><path d="M 33.296875 -42.03125 L 33.296875 -36.9375 L 20.078125 -36.9375 L 20.078125 0 L 14.1875 0 L 14.1875 -36.9375 L 0.96875 -36.9375 L 0.96875 -42.03125 Z M 33.296875 -42.03125 "/></g></g></g><g fill="#ffffff" fill-opacity="1"><g transform="translate(466.987562, 175.78601)"><g><path d="M 5.21875 0 L 5.21875 -42.03125 L 30.859375 -42.03125 L 30.859375 -36.984375 L 11.09375 -36.984375 L 11.09375 -24.5 L 28.6875 -24.5 L 28.6875 -19.59375 L 11.09375 -19.59375 L 11.09375 -5.03125 L 32.375 -5.03125 L 32.375 0 Z M 5.21875 0 "/></g></g></g><g fill="#ffffff" fill-opacity="1"><g transform="translate(501.61562, 175.78601)"><g><path d="M 33.296875 0 C 32.609375 -1.820312 31.957031 -3.609375 31.34375 -5.359375 C 30.738281 -7.117188 30.113281 -8.910156 29.46875 -10.734375 L 10.4375 -10.734375 L 6.609375 0 L 0.484375 0 C 2.097656 -4.445312 3.613281 -8.5625 5.03125 -12.34375 C 6.445312 -16.125 7.832031 -19.710938 9.1875 -23.109375 C 10.539062 -26.503906 11.882812 -29.742188 13.21875 -32.828125 C 14.550781 -35.921875 15.945312 -38.988281 17.40625 -42.03125 L 22.796875 -42.03125 C 24.253906 -38.988281 25.648438 -35.921875 26.984375 -32.828125 C 28.316406 -29.742188 29.660156 -26.503906 31.015625 -23.109375 C 32.367188 -19.710938 33.753906 -16.125 35.171875 -12.34375 C 36.585938 -8.5625 38.101562 -4.445312 39.71875 0 Z M 27.765625 -15.578125 C 26.472656 -19.097656 25.191406 -22.503906 23.921875 -25.796875 C 22.648438 -29.097656 21.328125 -32.265625 19.953125 -35.296875 C 18.535156 -32.265625 17.191406 -29.097656 15.921875 -25.796875 C 14.648438 -22.503906 13.382812 -19.097656 12.125 -15.578125 Z M 27.765625 -15.578125 "/></g></g></g><g fill="#ffffff" fill-opacity="1"><g transform="translate(541.82297, 175.78601)"><g><path d="M 39.71875 -21.046875 C 39.71875 -17.398438 39.148438 -14.234375 38.015625 -11.546875 C 36.890625 -8.859375 35.296875 -6.632812 33.234375 -4.875 C 31.171875 -3.125 28.703125 -1.8125 25.828125 -0.9375 C 22.960938 -0.0703125 19.8125 0.359375 16.375 0.359375 C 14.675781 0.359375 12.804688 0.285156 10.765625 0.140625 C 8.722656 0.00390625 6.875 -0.265625 5.21875 -0.671875 L 5.21875 -41.421875 C 6.875 -41.828125 8.722656 -42.097656 10.765625 -42.234375 C 12.804688 -42.378906 14.675781 -42.453125 16.375 -42.453125 C 19.8125 -42.453125 22.960938 -42.015625 25.828125 -41.140625 C 28.703125 -40.273438 31.171875 -38.960938 33.234375 -37.203125 C 35.296875 -35.441406 36.890625 -33.21875 38.015625 -30.53125 C 39.148438 -27.84375 39.71875 -24.679688 39.71875 -21.046875 Z M 16.859375 -4.796875 C 22.429688 -4.796875 26.59375 -6.21875 29.34375 -9.0625 C 32.09375 -11.914062 33.46875 -15.910156 33.46875 -21.046875 C 33.46875 -26.179688 32.09375 -30.171875 29.34375 -33.015625 C 26.59375 -35.867188 22.429688 -37.296875 16.859375 -37.296875 C 15.203125 -37.296875 13.914062 -37.273438 13 -37.234375 C 12.09375 -37.191406 11.457031 -37.148438 11.09375 -37.109375 L 11.09375 -4.96875 C 11.457031 -4.925781 12.09375 -4.882812 13 -4.84375 C 13.914062 -4.8125 15.203125 -4.796875 16.859375 -4.796875 Z M 16.859375 -4.796875 "/></g></g></g><g fill="#ffffff" fill-opacity="1"><g transform="translate(585.062547, 175.78601)"><g><path d="M 15.21875 0 L 15.21875 -16.859375 C 12.425781 -21.179688 9.796875 -25.441406 7.328125 -29.640625 C 4.867188 -33.847656 2.546875 -37.976562 0.359375 -42.03125 L 7.28125 -42.03125 C 8.8125 -38.707031 10.523438 -35.335938 12.421875 -31.921875 C 14.328125 -28.503906 16.289062 -25.222656 18.3125 -22.078125 C 20.289062 -25.222656 22.226562 -28.503906 24.125 -31.921875 C 26.03125 -35.335938 27.769531 -38.707031 29.34375 -42.03125 L 35.90625 -42.03125 C 33.71875 -37.976562 31.390625 -33.859375 28.921875 -29.671875 C 26.453125 -25.492188 23.847656 -21.265625 21.109375 -16.984375 L 21.109375 0 Z M 15.21875 0 "/></g></g></g><path fill="#0f61a5" d="M 1107.753906 147.179688 L 961.273438 147.179688 C 947.417969 147.179688 936.152344 135.933594 936.152344 122.019531 C 936.152344 108.144531 947.382812 96.863281 961.273438 96.863281 L 1107.753906 96.863281 C 1121.613281 96.863281 1132.875 108.109375 1132.875 122.019531 C 1132.875 135.933594 1121.613281 147.179688 1107.753906 147.179688 Z M 1107.753906 147.179688 " fill-opacity="1" fill-rule="nonzero"/><g clip-path="url(#74126806b7)"><path fill="#1e1e1e" d="M 1107.753906 148.945312 L 961.273438 148.945312 C 946.445312 148.945312 934.390625 136.871094 934.390625 122.019531 C 934.390625 107.171875 946.445312 95.09375 961.273438 95.09375 L 1107.753906 95.09375 C 1122.582031 95.09375 1134.640625 107.171875 1134.640625 122.019531 C 1134.640625 136.871094 1122.582031 148.945312 1107.753906 148.945312 Z M 961.273438 98.628906 C 948.390625 98.628906 937.917969 109.117188 937.917969 122.019531 C 937.917969 134.925781 948.390625 145.414062 961.273438 145.414062 L 1107.753906 145.414062 C 1120.640625 145.414062 1131.113281 134.925781 1131.113281 122.019531 C 1131.113281 109.117188 1120.640625 98.628906 1107.753906 98.628906 C 1107.753906 98.628906 961.273438 98.628906 961.273438 98.628906 Z M 961.273438 98.628906 " fill-opacity="1" fill-rule="nonzero"/></g><g clip-path="url(#e1bd21a6e5)"><path fill="#0075ff" d="M 1105.921875 139.828125 L 963.074219 139.828125 C 949.398438 139.828125 938.277344 128.726562 938.277344 114.992188 C 938.3125 101.296875 949.398438 90.195312 963.074219 90.195312 L 1105.921875 90.195312 C 1119.597656 90.195312 1130.71875 101.296875 1130.71875 115.027344 C 1130.71875 128.726562 1119.632812 139.828125 1105.921875 139.828125 Z M 1105.921875 139.828125 " fill-opacity="1" fill-rule="nonzero"/></g><path fill="#ffffff" d="M 971.640625 123.894531 C 970.453125 123.894531 969.410156 123.679688 968.472656 123.246094 C 967.539062 122.8125 966.746094 122.238281 966.132812 121.480469 C 965.523438 120.722656 965.054688 119.894531 964.730469 118.921875 C 964.40625 117.984375 964.261719 116.976562 964.261719 115.894531 C 964.261719 114.8125 964.40625 113.804688 964.730469 112.867188 C 965.054688 111.929688 965.523438 111.0625 966.132812 110.304688 C 966.746094 109.550781 967.539062 108.972656 968.472656 108.539062 C 969.410156 108.109375 970.453125 107.890625 971.640625 107.890625 C 973.261719 107.890625 974.769531 108.359375 976.140625 109.261719 C 976.679688 109.621094 976.96875 110.089844 976.96875 110.632812 C 976.96875 111.0625 976.785156 111.460938 976.464844 111.785156 C 976.140625 112.109375 975.707031 112.289062 975.167969 112.289062 C 974.769531 112.289062 974.449219 112.179688 974.125 111.964844 C 973.367188 111.460938 972.539062 111.207031 971.640625 111.207031 C 970.523438 111.207031 969.660156 111.675781 969.011719 112.648438 C 968.4375 113.515625 968.148438 114.597656 968.148438 115.894531 C 968.148438 117.191406 968.4375 118.273438 969.011719 119.136719 C 969.660156 120.074219 970.523438 120.542969 971.640625 120.542969 C 972.253906 120.542969 972.792969 120.433594 973.222656 120.253906 L 973.222656 117.550781 L 972 117.550781 C 971.460938 117.550781 971.027344 117.40625 970.667969 117.046875 C 970.308594 116.6875 970.128906 116.324219 970.128906 115.859375 C 970.128906 115.390625 970.308594 114.992188 970.667969 114.667969 C 971.027344 114.34375 971.460938 114.199219 972 114.199219 L 975.167969 114.199219 C 975.707031 114.199219 976.140625 114.378906 976.464844 114.703125 C 976.785156 115.027344 976.96875 115.425781 976.96875 115.859375 L 976.96875 121.121094 C 976.96875 121.660156 976.679688 122.128906 976.140625 122.488281 C 974.769531 123.425781 973.261719 123.894531 971.640625 123.894531 Z M 971.640625 123.894531 " fill-opacity="1" fill-rule="nonzero"/><path fill="#ffffff" d="M 990.03125 123.75 L 983.15625 123.75 C 982.617188 123.75 982.183594 123.570312 981.863281 123.246094 C 981.539062 122.921875 981.359375 122.527344 981.359375 122.09375 L 981.359375 109.730469 C 981.359375 109.296875 981.539062 108.9375 981.863281 108.578125 C 982.183594 108.253906 982.617188 108.070312 983.15625 108.070312 L 990.03125 108.070312 C 990.570312 108.070312 991.003906 108.253906 991.363281 108.539062 C 991.722656 108.863281 991.902344 109.261719 991.902344 109.730469 C 991.902344 110.199219 991.722656 110.59375 991.363281 110.917969 C 991.003906 111.242188 990.570312 111.386719 990.03125 111.386719 L 985.246094 111.386719 L 985.246094 114.234375 L 989.238281 114.234375 C 989.78125 114.234375 990.210938 114.378906 990.570312 114.703125 C 990.929688 115.027344 991.109375 115.425781 991.109375 115.894531 C 991.109375 116.363281 990.929688 116.757812 990.570312 117.082031 C 990.210938 117.40625 989.78125 117.550781 989.238281 117.550781 L 985.246094 117.550781 L 985.246094 120.398438 L 990.03125 120.398438 C 990.570312 120.398438 991.003906 120.542969 991.363281 120.867188 C 991.722656 121.191406 991.902344 121.589844 991.902344 122.058594 C 991.902344 122.527344 991.722656 122.921875 991.363281 123.246094 C 991.039062 123.570312 990.570312 123.75 990.03125 123.75 Z M 990.03125 123.75 " fill-opacity="1" fill-rule="nonzero"/><path fill="#ffffff" d="M 999.53125 123.894531 C 999.027344 123.894531 998.5625 123.75 998.164062 123.425781 C 997.769531 123.136719 997.589844 122.742188 997.589844 122.238281 L 997.589844 111.386719 L 995.824219 111.386719 C 995.285156 111.386719 994.855469 111.207031 994.492188 110.882812 C 994.132812 110.558594 993.953125 110.164062 993.953125 109.695312 C 993.953125 109.226562 994.132812 108.828125 994.492188 108.503906 C 994.855469 108.179688 995.285156 108.035156 995.824219 108.035156 L 1003.277344 108.035156 C 1003.816406 108.035156 1004.246094 108.214844 1004.605469 108.503906 C 1004.96875 108.792969 1005.148438 109.226562 1005.148438 109.695312 C 1005.148438 110.164062 1004.96875 110.558594 1004.605469 110.882812 C 1004.246094 111.207031 1003.816406 111.386719 1003.277344 111.386719 L 1001.511719 111.386719 L 1001.511719 122.238281 C 1001.511719 122.707031 1001.332031 123.101562 1000.9375 123.425781 C 1000.503906 123.75 1000.035156 123.894531 999.53125 123.894531 Z M 999.53125 123.894531 " fill-opacity="1" fill-rule="nonzero"/><path fill="#ffffff" d="M 1017.492188 123.894531 C 1015.296875 123.894531 1013.425781 123.28125 1011.949219 122.09375 C 1011.480469 121.734375 1011.265625 121.300781 1011.265625 120.796875 C 1011.265625 120.363281 1011.445312 120.003906 1011.769531 119.640625 C 1012.09375 119.316406 1012.523438 119.136719 1013.066406 119.136719 C 1013.496094 119.136719 1013.894531 119.28125 1014.253906 119.535156 C 1015.117188 120.21875 1016.195312 120.542969 1017.492188 120.542969 C 1017.996094 120.542969 1018.5 120.433594 1018.96875 120.183594 C 1019.433594 119.964844 1019.652344 119.605469 1019.652344 119.171875 C 1019.652344 118.921875 1019.542969 118.667969 1019.328125 118.488281 C 1019.113281 118.308594 1018.789062 118.128906 1018.355469 117.949219 C 1017.921875 117.769531 1017.457031 117.585938 1016.953125 117.40625 C 1016.375 117.191406 1015.800781 116.976562 1015.1875 116.722656 C 1014.578125 116.46875 1014.035156 116.183594 1013.496094 115.785156 C 1012.957031 115.425781 1012.5625 114.992188 1012.203125 114.453125 C 1011.878906 113.910156 1011.699219 113.296875 1011.699219 112.578125 C 1011.699219 111.0625 1012.308594 109.875 1013.496094 108.972656 C 1014.539062 108.214844 1015.835938 107.855469 1017.417969 107.855469 C 1018.246094 107.855469 1019.074219 107.964844 1019.976562 108.214844 C 1020.839844 108.46875 1021.59375 108.828125 1022.242188 109.296875 C 1022.746094 109.65625 1023 110.125 1023 110.632812 C 1023 111.0625 1022.820312 111.425781 1022.496094 111.785156 C 1022.171875 112.109375 1021.738281 112.289062 1021.199219 112.289062 C 1020.804688 112.289062 1020.441406 112.179688 1020.082031 111.929688 C 1019.722656 111.675781 1019.292969 111.496094 1018.789062 111.351562 C 1018.285156 111.242188 1017.816406 111.171875 1017.382812 111.171875 C 1016.84375 111.171875 1016.375 111.242188 1015.980469 111.460938 C 1015.585938 111.640625 1015.40625 111.964844 1015.40625 112.398438 C 1015.40625 112.613281 1015.511719 112.792969 1015.691406 112.972656 C 1015.871094 113.152344 1016.195312 113.296875 1016.554688 113.441406 C 1016.917969 113.585938 1017.382812 113.765625 1017.886719 113.945312 C 1018.464844 114.164062 1019.074219 114.378906 1019.722656 114.632812 C 1020.335938 114.882812 1020.945312 115.207031 1021.488281 115.605469 C 1022.027344 116 1022.496094 116.46875 1022.820312 117.011719 C 1023.140625 117.550781 1023.324219 118.238281 1023.324219 118.992188 C 1023.324219 119.785156 1023.140625 120.472656 1022.820312 121.085938 C 1022.496094 121.695312 1022.027344 122.203125 1021.449219 122.632812 C 1020.875 123.066406 1020.226562 123.355469 1019.542969 123.570312 C 1018.859375 123.789062 1018.210938 123.894531 1017.492188 123.894531 Z M 1017.492188 123.894531 " fill-opacity="1" fill-rule="nonzero"/><path fill="#ffffff" d="M 1030.699219 123.894531 C 1030.195312 123.894531 1029.730469 123.75 1029.332031 123.425781 C 1028.9375 123.136719 1028.757812 122.742188 1028.757812 122.238281 L 1028.757812 111.386719 L 1026.992188 111.386719 C 1026.453125 111.386719 1026.023438 111.207031 1025.660156 110.882812 C 1025.300781 110.558594 1025.121094 110.164062 1025.121094 109.695312 C 1025.121094 109.226562 1025.300781 108.828125 1025.660156 108.503906 C 1026.023438 108.179688 1026.453125 108.035156 1026.992188 108.035156 L 1034.441406 108.035156 C 1034.984375 108.035156 1035.414062 108.214844 1035.773438 108.503906 C 1036.136719 108.792969 1036.316406 109.226562 1036.316406 109.695312 C 1036.316406 110.164062 1036.136719 110.558594 1035.773438 110.882812 C 1035.414062 111.207031 1034.984375 111.386719 1034.441406 111.386719 L 1032.644531 111.386719 L 1032.644531 122.238281 C 1032.644531 122.707031 1032.464844 123.101562 1032.066406 123.425781 C 1031.671875 123.75 1031.203125 123.894531 1030.699219 123.894531 Z M 1030.699219 123.894531 " fill-opacity="1" fill-rule="nonzero"/><path fill="#ffffff" d="M 1039.804688 120.542969 L 1038.90625 122.8125 C 1038.761719 123.136719 1038.546875 123.390625 1038.257812 123.605469 C 1037.96875 123.824219 1037.609375 123.929688 1037.214844 123.929688 C 1036.675781 123.929688 1036.242188 123.75 1035.917969 123.425781 C 1035.59375 123.101562 1035.414062 122.707031 1035.414062 122.273438 C 1035.414062 122.09375 1035.449219 121.878906 1035.523438 121.695312 L 1040.5625 109.046875 C 1040.707031 108.71875 1040.921875 108.46875 1041.210938 108.253906 C 1041.496094 108.035156 1041.855469 107.964844 1042.253906 107.964844 C 1042.648438 107.964844 1043.007812 108.070312 1043.296875 108.253906 C 1043.585938 108.433594 1043.800781 108.71875 1043.945312 109.046875 L 1048.984375 121.695312 C 1049.054688 121.878906 1049.089844 122.09375 1049.089844 122.273438 C 1049.089844 122.742188 1048.910156 123.136719 1048.515625 123.464844 C 1048.121094 123.789062 1047.6875 123.929688 1047.148438 123.929688 C 1046.210938 123.929688 1045.601562 123.570312 1045.347656 122.851562 L 1044.414062 120.542969 C 1044.449219 120.542969 1039.804688 120.542969 1039.804688 120.542969 Z M 1043.117188 117.261719 L 1042.109375 114.738281 L 1041.101562 117.261719 Z M 1043.117188 117.261719 " fill-opacity="1" fill-rule="nonzero"/><path fill="#ffffff" d="M 1060.753906 123.894531 C 1060.105469 123.894531 1059.601562 123.644531 1059.242188 123.175781 L 1055.605469 118.378906 L 1055.390625 118.378906 L 1055.390625 122.273438 C 1055.390625 122.742188 1055.210938 123.136719 1054.8125 123.464844 C 1054.417969 123.789062 1053.984375 123.929688 1053.445312 123.929688 C 1052.941406 123.929688 1052.472656 123.789062 1052.078125 123.464844 C 1051.683594 123.175781 1051.503906 122.777344 1051.503906 122.273438 L 1051.503906 109.730469 C 1051.503906 109.296875 1051.683594 108.9375 1052.007812 108.578125 C 1052.332031 108.253906 1052.761719 108.070312 1053.300781 108.070312 L 1056.757812 108.070312 C 1058.449219 108.070312 1059.851562 108.46875 1060.894531 109.261719 C 1062.121094 110.199219 1062.730469 111.460938 1062.730469 113.082031 C 1062.730469 113.910156 1062.585938 114.632812 1062.300781 115.246094 C 1062.011719 115.859375 1061.578125 116.363281 1061.074219 116.792969 C 1060.570312 117.226562 1060.105469 117.480469 1059.707031 117.625 L 1062.371094 121.191406 C 1062.625 121.515625 1062.730469 121.839844 1062.730469 122.203125 C 1062.730469 122.671875 1062.550781 123.101562 1062.15625 123.425781 C 1061.761719 123.714844 1061.292969 123.894531 1060.753906 123.894531 Z M 1055.390625 115.027344 C 1056.324219 115.027344 1057.082031 114.957031 1057.65625 114.777344 C 1058.484375 114.523438 1058.878906 113.945312 1058.878906 113.082031 C 1058.878906 112.613281 1058.773438 112.253906 1058.558594 112 C 1058.339844 111.75 1058.054688 111.605469 1057.730469 111.496094 C 1057.40625 111.386719 1057.007812 111.351562 1056.613281 111.351562 L 1055.390625 111.351562 Z M 1055.390625 115.027344 " fill-opacity="1" fill-rule="nonzero"/><path fill="#ffffff" d="M 1069.679688 123.894531 C 1069.175781 123.894531 1068.707031 123.75 1068.308594 123.425781 C 1067.914062 123.136719 1067.734375 122.742188 1067.734375 122.238281 L 1067.734375 111.386719 L 1065.972656 111.386719 C 1065.429688 111.386719 1065 111.207031 1064.640625 110.882812 C 1064.277344 110.558594 1064.097656 110.164062 1064.097656 109.695312 C 1064.097656 109.226562 1064.277344 108.828125 1064.640625 108.503906 C 1065 108.179688 1065.429688 108.035156 1065.972656 108.035156 L 1073.421875 108.035156 C 1073.960938 108.035156 1074.390625 108.214844 1074.753906 108.503906 C 1075.113281 108.792969 1075.292969 109.226562 1075.292969 109.695312 C 1075.292969 110.164062 1075.113281 110.558594 1074.753906 110.882812 C 1074.390625 111.207031 1073.960938 111.386719 1073.421875 111.386719 L 1071.65625 111.386719 L 1071.65625 122.238281 C 1071.65625 122.707031 1071.476562 123.101562 1071.082031 123.425781 C 1070.648438 123.75 1070.21875 123.894531 1069.679688 123.894531 Z M 1069.679688 123.894531 " fill-opacity="1" fill-rule="nonzero"/><path fill="#ffffff" d="M 1086.015625 123.75 L 1079.144531 123.75 C 1078.601562 123.75 1078.171875 123.570312 1077.847656 123.246094 C 1077.488281 122.921875 1077.34375 122.527344 1077.34375 122.09375 L 1077.34375 109.730469 C 1077.34375 109.296875 1077.523438 108.9375 1077.847656 108.578125 C 1078.171875 108.253906 1078.601562 108.070312 1079.144531 108.070312 L 1086.015625 108.070312 C 1086.558594 108.070312 1086.988281 108.253906 1087.347656 108.539062 C 1087.707031 108.863281 1087.890625 109.261719 1087.890625 109.730469 C 1087.890625 110.199219 1087.707031 110.59375 1087.347656 110.917969 C 1086.988281 111.242188 1086.558594 111.386719 1086.015625 111.386719 L 1081.230469 111.386719 L 1081.230469 114.234375 L 1085.226562 114.234375 C 1085.765625 114.234375 1086.199219 114.378906 1086.558594 114.703125 C 1086.917969 115.027344 1087.097656 115.425781 1087.097656 115.894531 C 1087.097656 116.363281 1086.917969 116.757812 1086.558594 117.082031 C 1086.199219 117.40625 1085.765625 117.550781 1085.226562 117.550781 L 1081.230469 117.550781 L 1081.230469 120.398438 L 1086.015625 120.398438 C 1086.558594 120.398438 1086.988281 120.542969 1087.347656 120.867188 C 1087.707031 121.191406 1087.890625 121.589844 1087.890625 122.058594 C 1087.890625 122.527344 1087.707031 122.921875 1087.347656 123.246094 C 1086.988281 123.570312 1086.558594 123.75 1086.015625 123.75 Z M 1086.015625 123.75 " fill-opacity="1" fill-rule="nonzero"/><path fill="#ffffff" d="M 1097.136719 123.75 L 1093 123.75 C 1092.460938 123.75 1092.027344 123.570312 1091.703125 123.246094 C 1091.34375 122.921875 1091.199219 122.527344 1091.199219 122.09375 L 1091.199219 109.730469 C 1091.199219 109.296875 1091.378906 108.9375 1091.703125 108.578125 C 1092.027344 108.253906 1092.460938 108.070312 1093 108.070312 L 1097.136719 108.070312 C 1098.757812 108.070312 1100.125 108.433594 1101.277344 109.117188 C 1102.429688 109.800781 1103.292969 110.738281 1103.867188 111.929688 C 1104.445312 113.117188 1104.769531 114.453125 1104.769531 115.929688 C 1104.769531 117.445312 1104.480469 118.777344 1103.867188 119.929688 C 1103.292969 121.121094 1102.429688 122.019531 1101.277344 122.742188 C 1100.125 123.390625 1098.757812 123.75 1097.136719 123.75 Z M 1096.886719 120.398438 C 1098.21875 120.398438 1099.226562 119.964844 1099.875 119.171875 C 1100.558594 118.378906 1100.882812 117.261719 1100.882812 115.859375 C 1100.882812 114.921875 1100.738281 114.128906 1100.414062 113.441406 C 1100.089844 112.757812 1099.65625 112.253906 1099.082031 111.890625 C 1098.507812 111.53125 1097.75 111.351562 1096.886719 111.351562 L 1095.085938 111.351562 L 1095.085938 120.398438 Z M 1096.886719 120.398438 " fill-opacity="1" fill-rule="nonzero"/><g clip-path="url(#d33d7ab86b)"><path fill="#1b1918" d="M 1113.765625 165.3125 L 1113.765625 165.636719 C 1113.765625 173.566406 1107.429688 180.019531 1099.621094 180.019531 C 1095.230469 180.019531 1091.632812 178.289062 1088.96875 174.898438 L 1088.933594 174.863281 C 1088.859375 174.792969 1088.824219 174.753906 1088.789062 174.71875 L 1079.574219 161.921875 L 1079.539062 161.886719 C 1079.539062 161.886719 1079.539062 161.851562 1079.503906 161.851562 C 1078.785156 160.914062 1077.738281 159.292969 1077.847656 158.136719 C 1078.027344 155.832031 1079.683594 154.496094 1081.988281 154.355469 C 1083.460938 154.28125 1085.371094 155.148438 1086.304688 156.300781 C 1086.339844 156.335938 1086.378906 156.371094 1086.414062 156.40625 L 1087.277344 157.527344 L 1087.277344 136.761719 C 1087.347656 134.277344 1088.933594 132.292969 1091.453125 132.292969 C 1093.972656 132.292969 1095.988281 134.242188 1096.09375 136.726562 L 1096.09375 144.875 C 1096.453125 144.800781 1096.816406 144.730469 1097.210938 144.730469 C 1098.828125 144.730469 1100.339844 145.59375 1101.242188 146.929688 C 1101.816406 146.675781 1102.464844 146.566406 1103.113281 146.566406 C 1104.730469 146.566406 1106.207031 147.359375 1107.070312 148.660156 C 1107.648438 148.40625 1108.296875 148.261719 1108.941406 148.261719 C 1111.390625 148.261719 1113.40625 150.101562 1113.695312 152.515625 C 1113.730469 152.695312 1113.730469 152.875 1113.730469 153.054688 L 1113.730469 165.273438 C 1113.765625 165.273438 1113.765625 165.3125 1113.765625 165.3125 Z M 1113.765625 165.3125 " fill-opacity="1" fill-rule="nonzero"/></g><path fill="#ffffff" d="M 1112.972656 151.507812 C 1112.972656 151.363281 1112.972656 151.21875 1112.9375 151.074219 C 1112.722656 149.128906 1111.066406 147.613281 1109.085938 147.613281 C 1108.257812 147.613281 1107.46875 147.867188 1106.855469 148.335938 C 1106.28125 146.929688 1104.875 145.917969 1103.257812 145.917969 C 1102.429688 145.917969 1101.671875 146.171875 1101.023438 146.605469 C 1100.484375 145.125 1099.046875 144.082031 1097.390625 144.082031 C 1096.671875 144.082031 1095.988281 144.296875 1095.410156 144.621094 L 1095.410156 135.214844 C 1095.339844 133.195312 1093.683594 131.609375 1091.632812 131.609375 C 1089.617188 131.609375 1087.925781 133.195312 1087.851562 135.214844 L 1087.851562 158.460938 L 1085.40625 155.363281 L 1085.371094 155.328125 C 1084.648438 154.390625 1083.5 153.8125 1082.203125 153.847656 C 1080.332031 153.957031 1078.820312 155.433594 1078.640625 157.273438 C 1078.566406 158.28125 1078.855469 159.21875 1079.429688 159.941406 C 1079.46875 159.976562 1079.46875 159.976562 1079.503906 160.046875 L 1089.148438 172.339844 C 1089.183594 172.375 1089.183594 172.414062 1089.257812 172.484375 C 1089.257812 172.519531 1089.292969 172.519531 1089.328125 172.554688 C 1091.777344 175.691406 1095.519531 177.566406 1099.730469 177.566406 C 1107.070312 177.566406 1113.011719 171.511719 1113.011719 164.050781 C 1113.011719 163.941406 1113.011719 163.832031 1113.011719 163.726562 C 1113.011719 163.6875 1113.011719 163.6875 1113.011719 163.6875 Z M 1112.972656 151.507812 " fill-opacity="1" fill-rule="nonzero"/><path fill="#1b1918" d="M 1113.765625 163.6875 L 1113.765625 151.46875 C 1113.765625 151.289062 1113.765625 151.109375 1113.730469 150.929688 C 1113.441406 148.515625 1111.425781 146.675781 1108.980469 146.675781 C 1108.332031 146.675781 1107.683594 146.820312 1107.109375 147.074219 C 1106.242188 145.773438 1104.769531 144.980469 1103.148438 144.980469 C 1102.5 144.980469 1101.890625 145.125 1101.277344 145.34375 C 1100.414062 144.007812 1098.902344 143.144531 1097.246094 143.144531 C 1096.886719 143.144531 1096.492188 143.179688 1096.128906 143.289062 L 1096.128906 135.175781 C 1096.023438 132.691406 1094.007812 130.742188 1091.488281 130.742188 C 1088.96875 130.742188 1087.386719 132.691406 1087.3125 135.214844 L 1087.3125 155.976562 L 1086.449219 154.859375 C 1086.414062 154.820312 1086.378906 154.785156 1086.339844 154.75 C 1085.40625 153.597656 1083.5 152.730469 1082.023438 152.804688 C 1079.71875 152.910156 1078.0625 154.28125 1077.882812 156.589844 C 1077.777344 157.777344 1078.820312 159.398438 1079.539062 160.300781 C 1079.539062 160.300781 1079.539062 160.335938 1079.574219 160.335938 L 1079.609375 160.375 L 1088.824219 173.167969 C 1088.859375 173.207031 1088.898438 173.242188 1088.96875 173.3125 L 1089.003906 173.347656 C 1091.667969 176.738281 1095.230469 178.46875 1099.65625 178.46875 C 1107.46875 178.46875 1113.800781 172.015625 1113.800781 164.085938 L 1113.800781 163.761719 C 1113.765625 163.761719 1113.765625 163.726562 1113.765625 163.6875 Z M 1112.003906 163.726562 L 1112.003906 164.085938 C 1112.003906 171.042969 1106.460938 176.703125 1099.621094 176.703125 C 1095.769531 176.703125 1092.675781 175.222656 1090.371094 172.269531 L 1090.265625 172.160156 C 1090.226562 172.125 1090.226562 172.125 1090.191406 172.085938 L 1081.050781 159.363281 C 1081.050781 159.363281 1081.050781 159.328125 1081.015625 159.328125 L 1080.941406 159.21875 C 1080.476562 158.644531 1079.574219 157.453125 1079.648438 156.734375 C 1079.753906 155.328125 1080.691406 154.640625 1082.128906 154.570312 C 1083.066406 154.535156 1084.433594 155.183594 1085.007812 155.941406 L 1085.152344 156.121094 L 1085.191406 156.121094 L 1087.527344 159.074219 C 1087.78125 159.363281 1088.175781 159.472656 1088.535156 159.363281 L 1089.148438 159.148438 L 1089.148438 135.25 C 1089.21875 133.734375 1090.011719 132.511719 1091.558594 132.511719 C 1093.109375 132.511719 1094.367188 133.699219 1094.4375 135.25 L 1094.4375 150.53125 C 1094.4375 150.964844 1094.800781 151.324219 1095.230469 151.324219 C 1095.664062 151.324219 1096.023438 150.964844 1096.023438 150.53125 L 1096.023438 145.234375 C 1096.417969 145.054688 1096.851562 144.945312 1097.28125 144.945312 C 1098.507812 144.945312 1099.65625 145.738281 1100.089844 146.890625 C 1100.125 146.964844 1100.125 147 1100.160156 147.074219 L 1100.160156 152.082031 C 1100.160156 152.515625 1100.519531 152.875 1100.953125 152.875 C 1101.386719 152.875 1101.746094 152.515625 1101.746094 152.082031 L 1101.746094 147.109375 C 1102.175781 146.890625 1102.644531 146.785156 1103.113281 146.785156 C 1104.335938 146.785156 1105.417969 147.503906 1105.882812 148.660156 C 1105.882812 148.695312 1105.921875 148.730469 1105.957031 148.800781 L 1105.957031 153.453125 C 1105.957031 153.886719 1106.316406 154.246094 1106.746094 154.246094 C 1107.179688 154.246094 1107.539062 153.886719 1107.539062 153.453125 L 1107.539062 148.875 C 1107.972656 148.660156 1108.4375 148.515625 1108.941406 148.515625 C 1110.453125 148.515625 1111.75 149.667969 1111.929688 151.179688 C 1111.929688 151.289062 1111.964844 151.398438 1111.964844 151.507812 Z M 1112.003906 163.726562 " fill-opacity="1" fill-rule="nonzero"/></svg>