<svg xmlns="http://www.w3.org/2000/svg" xmlns:xlink="http://www.w3.org/1999/xlink" width="1600" zoomAndPan="magnify" viewBox="0 0 1200 449.999984" height="600" preserveAspectRatio="xMidYMid meet" version="1.0"><defs><g/><clipPath id="17425e9fc7"><path d="M 750.585938 218.425781 L 794.367188 218.425781 L 794.367188 272.132812 L 750.585938 272.132812 Z M 750.585938 218.425781 " clip-rule="nonzero"/></clipPath><clipPath id="a0728a52f6"><path d="M 672 85.386719 L 763 85.386719 L 763 248 L 672 248 Z M 672 85.386719 " clip-rule="nonzero"/></clipPath><clipPath id="f501ab456f"><path d="M 593.527344 85.421875 L 717.683594 85.421875 L 717.683594 272.132812 L 593.527344 272.132812 Z M 593.527344 85.421875 " clip-rule="nonzero"/></clipPath><clipPath id="a5d8bf09f9"><path d="M 0.160156 0.078125 L 307 0.078125 L 307 221 L 0.160156 221 Z M 0.160156 0.078125 " clip-rule="nonzero"/></clipPath><clipPath id="af99823193"><rect x="0" width="307" y="0" height="221"/></clipPath><clipPath id="b0e0c44b2e"><rect x="0" width="947" y="0" height="147"/></clipPath><clipPath id="9e6f6be043"><path d="M 451 256 L 990.398438 256 L 990.398438 411.921875 L 451 411.921875 Z M 451 256 " clip-rule="nonzero"/></clipPath><clipPath id="becb547d62"><rect x="0" width="540" y="0" height="156"/></clipPath><clipPath id="09bcd9da48"><rect x="0" width="991" y="0" height="412"/></clipPath></defs><rect x="-120" width="1440" fill="#ffffff" y="-44.999998" height="539.99998" fill-opacity="1"/><rect x="-120" width="1440" fill="#ffffff" y="-44.999998" height="539.99998" fill-opacity="1"/><g transform="matrix(1, 0, 0, 1, 98, 10)"><g clip-path="url(#09bcd9da48)"><g clip-path="url(#17425e9fc7)"><path fill="#054aca" d="M 773.347656 218.445312 L 750.664062 272.429688 L 796.027344 272.429688 Z M 773.347656 218.445312 " fill-opacity="1" fill-rule="nonzero"/></g><path fill="#054aca" d="M 670.566406 247.371094 L 740.136719 247.371094 L 722.460938 205.292969 L 688.402344 205.292969 L 670.566406 247.371094 " fill-opacity="1" fill-rule="nonzero"/><g clip-path="url(#a0728a52f6)"><path fill="#1800ad" d="M 762.820312 193.386719 L 717.457031 85.421875 L 672.097656 85.421875 L 740.136719 247.371094 L 762.820312 193.386719 " fill-opacity="1" fill-rule="nonzero"/></g><g clip-path="url(#f501ab456f)"><path fill="#054aca" d="M 672.097656 85.421875 L 593.527344 272.429688 L 638.890625 272.429688 L 717.457031 85.421875 L 672.097656 85.421875 " fill-opacity="1" fill-rule="nonzero"/></g><g clip-path="url(#a5d8bf09f9)"><g transform="matrix(1, 0, 0, 1, -0.000000000000028422, -0.000000000000001776)"><g clip-path="url(#af99823193)"><g fill="#053ec5" fill-opacity="1"><g transform="translate(0.281354, 167.907124)"><g><path d="M 102.328125 -106.40625 L 67.140625 -106.40625 L 44.703125 0 L 31.109375 0 L 53.546875 -106.40625 L 18.703125 -106.40625 L 21.25 -118.984375 L 104.875 -118.984375 Z M 102.328125 -106.40625 "/></g></g></g><g fill="#053ec5" fill-opacity="1"><g transform="translate(92.699292, 167.907124)"><g><path d="M 85.828125 -54.5625 L 31.78125 -54.5625 L 20.390625 0 L 6.796875 0 L 31.953125 -118.984375 L 45.546875 -118.984375 L 34.671875 -67.140625 L 88.546875 -67.140625 L 99.4375 -118.984375 L 113.03125 -118.984375 L 87.875 0 L 74.28125 0 Z M 85.828125 -54.5625 "/></g></g></g><g fill="#053ec5" fill-opacity="1"><g transform="translate(203.974145, 167.907124)"><g><path d="M 32.125 -118.984375 L 93.484375 -118.984375 L 90.9375 -106.40625 L 42.828125 -106.40625 L 34.5 -67.484375 L 78.53125 -67.484375 L 75.96875 -54.90625 L 31.953125 -54.90625 L 22.953125 -12.578125 L 71.890625 -12.578125 L 69.171875 0 L 6.796875 0 Z M 32.125 -118.984375 "/></g></g></g></g></g></g><g transform="matrix(1, 0, 0, 1, 31, 158)"><g clip-path="url(#b0e0c44b2e)"><g fill="#121213" fill-opacity="1"><g transform="translate(1.446498, 115.55789)"><g><path d="M 71.515625 -42.9375 C 76.222656 -41.289062 79.910156 -38.722656 82.578125 -35.234375 C 85.242188 -31.742188 86.578125 -27.523438 86.578125 -22.578125 C 86.578125 -15.367188 83.671875 -9.800781 77.859375 -5.875 C 72.054688 -1.957031 63.671875 0 52.703125 0 L 8.234375 0 L 8.234375 -82.34375 L 50.34375 -82.34375 C 60.851562 -82.34375 68.851562 -80.398438 74.34375 -76.515625 C 79.832031 -72.628906 82.578125 -67.394531 82.578125 -60.8125 C 82.578125 -56.894531 81.613281 -53.382812 79.6875 -50.28125 C 77.769531 -47.1875 75.046875 -44.738281 71.515625 -42.9375 Z M 31.28125 -65.515625 L 31.28125 -49.640625 L 47.28125 -49.640625 C 55.125 -49.640625 59.046875 -52.304688 59.046875 -57.640625 C 59.046875 -62.890625 55.125 -65.515625 47.28125 -65.515625 Z M 50.8125 -16.828125 C 58.96875 -16.828125 63.046875 -19.609375 63.046875 -25.171875 C 63.046875 -30.734375 58.96875 -33.515625 50.8125 -33.515625 L 31.28125 -33.515625 L 31.28125 -16.828125 Z M 50.8125 -16.828125 "/></g></g></g><g fill="#121213" fill-opacity="1"><g transform="translate(91.898332, 115.55789)"><g><path d="M 74.34375 -18 L 74.34375 0 L 8.234375 0 L 8.234375 -82.34375 L 72.8125 -82.34375 L 72.8125 -64.34375 L 31.28125 -64.34375 L 31.28125 -50.46875 L 67.875 -50.46875 L 67.875 -33.046875 L 31.28125 -33.046875 L 31.28125 -18 Z M 74.34375 -18 "/></g></g></g><g fill="#121213" fill-opacity="1"><g transform="translate(170.940767, 115.55789)"><g><path d="M 86.578125 -82.34375 L 86.578125 0 L 67.40625 0 L 31.046875 -43.875 L 31.046875 0 L 8.234375 0 L 8.234375 -82.34375 L 27.40625 -82.34375 L 63.75 -38.46875 L 63.75 -82.34375 Z M 86.578125 -82.34375 "/></g></g></g><g fill="#121213" fill-opacity="1"><g transform="translate(265.744644, 115.55789)"><g><path d="M 49.28125 1.640625 C 40.65625 1.640625 32.910156 -0.179688 26.046875 -3.828125 C 19.191406 -7.472656 13.800781 -12.546875 9.875 -19.046875 C 5.957031 -25.554688 4 -32.929688 4 -41.171875 C 4 -49.398438 5.957031 -56.769531 9.875 -63.28125 C 13.800781 -69.789062 19.191406 -74.867188 26.046875 -78.515625 C 32.910156 -82.160156 40.65625 -83.984375 49.28125 -83.984375 C 56.8125 -83.984375 63.59375 -82.648438 69.625 -79.984375 C 75.664062 -77.316406 80.6875 -73.472656 84.6875 -68.453125 L 69.875 -55.046875 C 64.539062 -61.472656 58.070312 -64.6875 50.46875 -64.6875 C 45.988281 -64.6875 42.003906 -63.707031 38.515625 -61.75 C 35.023438 -59.789062 32.320312 -57.023438 30.40625 -53.453125 C 28.488281 -49.890625 27.53125 -45.796875 27.53125 -41.171875 C 27.53125 -36.546875 28.488281 -32.445312 30.40625 -28.875 C 32.320312 -25.3125 35.023438 -22.546875 38.515625 -20.578125 C 42.003906 -18.617188 45.988281 -17.640625 50.46875 -17.640625 C 58.070312 -17.640625 64.539062 -20.851562 69.875 -27.28125 L 84.6875 -13.875 C 80.6875 -8.863281 75.664062 -5.023438 69.625 -2.359375 C 63.59375 0.304688 56.8125 1.640625 49.28125 1.640625 Z M 49.28125 1.640625 "/></g></g></g><g fill="#121213" fill-opacity="1"><g transform="translate(352.550176, 115.55789)"><g><path d="M 86.578125 -82.34375 L 86.578125 0 L 63.28125 0 L 63.28125 -32.109375 L 31.53125 -32.109375 L 31.53125 0 L 8.234375 0 L 8.234375 -82.34375 L 31.53125 -82.34375 L 31.53125 -51.40625 L 63.28125 -51.40625 L 63.28125 -82.34375 Z M 86.578125 -82.34375 "/></g></g></g><g fill="#121213" fill-opacity="1"><g transform="translate(447.354053, 115.55789)"><g><path d="M 82.578125 0 L 82.34375 -43.640625 L 61.171875 -8.109375 L 50.8125 -8.109375 L 29.765625 -42.46875 L 29.765625 0 L 8.234375 0 L 8.234375 -82.34375 L 27.40625 -82.34375 L 56.34375 -34.8125 L 84.578125 -82.34375 L 103.75 -82.34375 L 103.984375 0 Z M 82.578125 0 "/></g></g></g><g fill="#121213" fill-opacity="1"><g transform="translate(559.594739, 115.55789)"><g/></g></g><g fill="#121213" fill-opacity="1"><g transform="translate(593.822939, 115.55789)"><g/></g></g><g fill="#121213" fill-opacity="1"><g transform="translate(628.051139, 115.55789)"><g/></g></g><g fill="#121213" fill-opacity="1"><g transform="translate(662.279339, 115.55789)"><g/></g></g><g fill="#121213" fill-opacity="1"><g transform="translate(696.507539, 115.55789)"><g/></g></g><g fill="#121213" fill-opacity="1"><g transform="translate(730.735739, 115.55789)"><g/></g></g><g fill="#121213" fill-opacity="1"><g transform="translate(764.985072, 115.55789)"><g><path d="M 44.234375 -21.875 L 31.53125 -21.875 L 31.53125 0 L 8.234375 0 L 8.234375 -82.34375 L 45.875 -82.34375 C 53.320312 -82.34375 59.789062 -81.101562 65.28125 -78.625 C 70.769531 -76.15625 75.003906 -72.628906 77.984375 -68.046875 C 80.960938 -63.460938 82.453125 -58.070312 82.453125 -51.875 C 82.453125 -45.914062 81.0625 -40.71875 78.28125 -36.28125 C 75.5 -31.851562 71.519531 -28.382812 66.34375 -25.875 L 84.109375 0 L 59.171875 0 Z M 58.9375 -51.875 C 58.9375 -55.71875 57.71875 -58.695312 55.28125 -60.8125 C 52.851562 -62.925781 49.25 -63.984375 44.46875 -63.984375 L 31.53125 -63.984375 L 31.53125 -39.875 L 44.46875 -39.875 C 49.25 -39.875 52.851562 -40.910156 55.28125 -42.984375 C 57.71875 -45.066406 58.9375 -48.03125 58.9375 -51.875 Z M 58.9375 -51.875 "/></g></g></g><g fill="#121213" fill-opacity="1"><g transform="translate(852.025852, 115.55789)"><g><path d="M 40 -29.875 L 31.28125 -20.578125 L 31.28125 0 L 8.234375 0 L 8.234375 -82.34375 L 31.28125 -82.34375 L 31.28125 -48.109375 L 63.171875 -82.34375 L 88.8125 -82.34375 L 55.171875 -45.875 L 90.578125 0 L 63.515625 0 Z M 40 -29.875 "/></g></g></g></g></g><g clip-path="url(#9e6f6be043)"><g transform="matrix(1, 0, 0, 1, 451, 256)"><g clip-path="url(#becb547d62)"><g fill="#0640c6" fill-opacity="1"><g transform="translate(0.225529, 124.73498)"><g><path d="M 97.765625 -96.921875 L 95.109375 -85.59375 L 65.875 -85.59375 L 45.3125 0 L 31.75 0 L 52.3125 -85.59375 L 23.078125 -85.59375 L 25.734375 -96.921875 Z M 97.765625 -96.921875 "/></g></g></g><g fill="#0640c6" fill-opacity="1"><g transform="translate(79.775003, 124.73498)"><g><path d="M 59.15625 -97.90625 C 69.507812 -97.90625 77.710938 -95.804688 83.765625 -91.609375 C 89.828125 -87.410156 92.859375 -81.253906 92.859375 -73.140625 C 92.859375 -64.941406 90.457031 -58.066406 85.65625 -52.515625 C 80.863281 -46.972656 74.128906 -42.988281 65.453125 -40.5625 C 66.566406 -38.601562 67.867188 -36.109375 69.359375 -33.078125 C 70.859375 -30.046875 72.398438 -26.6875 73.984375 -23 C 75.566406 -19.320312 77.101562 -15.5 78.59375 -11.53125 C 80.09375 -7.570312 81.398438 -3.726562 82.515625 0 L 68.671875 0 C 67.367188 -3.539062 66.015625 -7.128906 64.609375 -10.765625 C 63.210938 -14.398438 61.789062 -17.894531 60.34375 -21.25 C 58.90625 -24.613281 57.460938 -27.765625 56.015625 -30.703125 C 54.566406 -33.640625 53.238281 -36.226562 52.03125 -38.46875 C 50.8125 -38.375 49.597656 -38.300781 48.390625 -38.25 C 47.179688 -38.207031 45.96875 -38.1875 44.75 -38.1875 L 33.984375 -38.1875 L 24.890625 0 L 11.328125 0 L 34.265625 -95.65625 C 38.179688 -96.59375 42.328125 -97.203125 46.703125 -97.484375 C 51.085938 -97.765625 55.238281 -97.90625 59.15625 -97.90625 Z M 57.484375 -86.4375 C 50.859375 -86.4375 46.847656 -86.25 45.453125 -85.875 L 36.640625 -49.234375 L 44.890625 -49.234375 C 48.710938 -49.234375 52.628906 -49.507812 56.640625 -50.0625 C 60.648438 -50.625 64.3125 -51.71875 67.625 -53.34375 C 70.9375 -54.976562 73.640625 -57.265625 75.734375 -60.203125 C 77.828125 -63.140625 78.875 -67.035156 78.875 -71.890625 C 78.875 -77.109375 76.894531 -80.835938 72.9375 -83.078125 C 68.976562 -85.316406 63.828125 -86.4375 57.484375 -86.4375 Z M 57.484375 -86.4375 "/></g></g></g><g fill="#0640c6" fill-opacity="1"><g transform="translate(166.873917, 124.73498)"><g><path d="M 29.9375 -24.890625 L 16.21875 0 L 1.40625 0 C 11.84375 -18.832031 22.023438 -36.171875 31.953125 -52.015625 C 41.890625 -67.867188 51.703125 -82.835938 61.390625 -96.921875 L 74.6875 -96.921875 C 76.082031 -89.929688 77.363281 -82.867188 78.53125 -75.734375 C 79.695312 -68.597656 80.835938 -61.113281 81.953125 -53.28125 C 83.078125 -45.445312 84.148438 -37.148438 85.171875 -28.390625 C 86.203125 -19.628906 87.273438 -10.164062 88.390625 0 L 74.6875 0 C 74.21875 -4.195312 73.796875 -8.414062 73.421875 -12.65625 C 73.046875 -16.894531 72.628906 -20.972656 72.171875 -24.890625 Z M 70.90625 -35.796875 C 70.164062 -43.347656 69.304688 -50.851562 68.328125 -58.3125 C 67.347656 -65.78125 66.203125 -73.472656 64.890625 -81.390625 C 61.628906 -76.640625 57.570312 -70.507812 52.71875 -63 C 47.875 -55.5 42.375 -46.429688 36.21875 -35.796875 Z M 70.90625 -35.796875 "/></g></g></g><g fill="#0640c6" fill-opacity="1"><g transform="translate(257.747508, 124.73498)"><g><path d="M 58.046875 -86.4375 C 51.046875 -86.4375 46.847656 -86.25 45.453125 -85.875 L 27.546875 -11.1875 C 28.296875 -11 29.554688 -10.832031 31.328125 -10.6875 C 33.097656 -10.550781 35.988281 -10.484375 40 -10.484375 C 47.363281 -10.484375 54.003906 -11.71875 59.921875 -14.1875 C 65.847656 -16.664062 70.863281 -20.117188 74.96875 -24.546875 C 79.070312 -28.972656 82.238281 -34.238281 84.46875 -40.34375 C 86.707031 -46.457031 87.828125 -53.148438 87.828125 -60.421875 C 87.828125 -68.628906 85.445312 -75.015625 80.6875 -79.578125 C 75.9375 -84.148438 68.390625 -86.4375 58.046875 -86.4375 Z M 59.15625 -97.90625 C 73.519531 -97.90625 84.242188 -94.523438 91.328125 -87.765625 C 98.410156 -81.003906 101.953125 -71.890625 101.953125 -60.421875 C 101.953125 -52.398438 100.691406 -44.679688 98.171875 -37.265625 C 95.660156 -29.859375 91.75 -23.3125 86.4375 -17.625 C 81.125 -11.9375 74.335938 -7.410156 66.078125 -4.046875 C 57.828125 -0.691406 47.96875 0.984375 36.5 0.984375 C 32.582031 0.984375 28.335938 0.796875 23.765625 0.421875 C 19.203125 0.046875 15.195312 -0.601562 11.75 -1.53125 L 34.265625 -95.65625 C 38.179688 -96.59375 42.328125 -97.203125 46.703125 -97.484375 C 51.085938 -97.765625 55.238281 -97.90625 59.15625 -97.90625 Z M 59.15625 -97.90625 "/></g></g></g><g fill="#0640c6" fill-opacity="1"><g transform="translate(356.31039, 124.73498)"><g><path d="M 11.328125 0 L 34.546875 -96.921875 L 91.75 -96.921875 L 89.09375 -85.59375 L 45.3125 -85.59375 L 38.328125 -56.359375 L 77.203125 -56.359375 L 74.546875 -45.3125 L 35.796875 -45.3125 L 27.546875 -11.328125 L 74.546875 -11.328125 L 71.890625 0 Z M 11.328125 0 "/></g></g></g><g fill="#0640c6" fill-opacity="1"><g transform="translate(436.139484, 124.73498)"><g><path d="M 59.15625 -97.90625 C 69.507812 -97.90625 77.710938 -95.804688 83.765625 -91.609375 C 89.828125 -87.410156 92.859375 -81.253906 92.859375 -73.140625 C 92.859375 -64.941406 90.457031 -58.066406 85.65625 -52.515625 C 80.863281 -46.972656 74.128906 -42.988281 65.453125 -40.5625 C 66.566406 -38.601562 67.867188 -36.109375 69.359375 -33.078125 C 70.859375 -30.046875 72.398438 -26.6875 73.984375 -23 C 75.566406 -19.320312 77.101562 -15.5 78.59375 -11.53125 C 80.09375 -7.570312 81.398438 -3.726562 82.515625 0 L 68.671875 0 C 67.367188 -3.539062 66.015625 -7.128906 64.609375 -10.765625 C 63.210938 -14.398438 61.789062 -17.894531 60.34375 -21.25 C 58.90625 -24.613281 57.460938 -27.765625 56.015625 -30.703125 C 54.566406 -33.640625 53.238281 -36.226562 52.03125 -38.46875 C 50.8125 -38.375 49.597656 -38.300781 48.390625 -38.25 C 47.179688 -38.207031 45.96875 -38.1875 44.75 -38.1875 L 33.984375 -38.1875 L 24.890625 0 L 11.328125 0 L 34.265625 -95.65625 C 38.179688 -96.59375 42.328125 -97.203125 46.703125 -97.484375 C 51.085938 -97.765625 55.238281 -97.90625 59.15625 -97.90625 Z M 57.484375 -86.4375 C 50.859375 -86.4375 46.847656 -86.25 45.453125 -85.875 L 36.640625 -49.234375 L 44.890625 -49.234375 C 48.710938 -49.234375 52.628906 -49.507812 56.640625 -50.0625 C 60.648438 -50.625 64.3125 -51.71875 67.625 -53.34375 C 70.9375 -54.976562 73.640625 -57.265625 75.734375 -60.203125 C 77.828125 -63.140625 78.875 -67.035156 78.875 -71.890625 C 78.875 -77.109375 76.894531 -80.835938 72.9375 -83.078125 C 68.976562 -85.316406 63.828125 -86.4375 57.484375 -86.4375 Z M 57.484375 -86.4375 "/></g></g></g></g></g></g></g></g></svg>